<svg width="187" height="75" viewBox="0 0 187 75" fill="none" xmlns="http://www.w3.org/2000/svg">
<g clip-path="url(#clip0_0_229)">
<mask id="mask0_0_229" style="mask-type:luminance" maskUnits="userSpaceOnUse" x="3" y="28" width="180" height="35">
<path d="M182.93 28H3.02698V62.8649H182.93V28Z" fill="white"/>
</mask>
<g mask="url(#mask0_0_229)">
<path fill-rule="evenodd" clip-rule="evenodd" d="M74.0149 55.2713C67.3671 60.2267 57.7276 62.8629 49.4271 62.8629C37.7958 62.8629 27.3203 58.5198 19.392 51.2885C18.7703 50.7196 19.3238 49.9458 20.0722 50.3849C28.6241 55.4131 39.201 58.441 50.1248 58.441C57.4938 58.441 65.5936 56.8956 73.0483 53.7022C74.1728 53.2219 75.1161 54.4504 74.0149 55.2713Z" fill="#F79C34"/>
<path fill-rule="evenodd" clip-rule="evenodd" d="M76.7827 52.08C75.931 50.9794 71.162 51.5582 69.0181 51.8181C68.3691 51.8969 68.2678 51.324 68.8525 50.9085C72.6588 48.2074 78.8954 48.987 79.6184 49.8927C80.3473 50.8042 79.4255 57.12 75.8609 60.1342C75.3113 60.5968 74.7889 60.3507 75.0326 59.7385C75.8355 57.7126 77.6325 53.1805 76.7808 52.08H76.7827Z" fill="#F79C34"/>
<path fill-rule="evenodd" clip-rule="evenodd" d="M69.1701 31.8323V29.2099C69.172 28.8103 69.4702 28.5445 69.8288 28.5464H81.4698C81.8421 28.5464 82.1422 28.8181 82.1422 29.208V31.4583C82.1383 31.8363 81.8226 32.3284 81.2652 33.11L75.2352 41.8081C77.4726 41.7549 79.8405 42.0935 81.8752 43.2492C82.3332 43.5091 82.4579 43.8949 82.493 44.2729V47.0725C82.493 47.4584 82.076 47.9053 81.6355 47.673C78.0533 45.7771 73.2979 45.5704 69.3357 47.6966C68.9304 47.9152 68.5074 47.4742 68.5074 47.0883V44.4265C68.5074 44.0013 68.5152 43.2728 68.9401 42.6231L75.9251 32.4978H69.8425C69.4702 32.4978 69.172 32.23 69.1701 31.8363V31.8323ZM26.7066 48.2203H23.1654C22.8282 48.1987 22.5592 47.9427 22.532 47.6159L22.5359 29.2532C22.5359 28.887 22.8418 28.5937 23.2199 28.5937H26.5175C26.8625 28.6094 27.1393 28.8733 27.1607 29.2099V31.6059H27.2289C28.0884 29.2867 29.708 28.2059 31.8888 28.2059C34.0697 28.2059 35.4924 29.2887 36.4844 31.6059C37.3439 29.2867 39.2948 28.2059 41.3763 28.2059C42.8652 28.2059 44.4829 28.824 45.4749 30.216C46.5994 31.7614 46.3694 34.0019 46.3694 35.9726L46.3655 47.5608C46.3655 47.927 46.0615 48.2203 45.6834 48.2203H42.1461C41.7894 48.1967 41.5107 47.9132 41.5107 47.5608V37.8272C41.5107 37.0555 41.575 35.1241 41.4094 34.3897C41.1463 33.1514 40.3531 32.8049 39.3279 32.8049C38.4684 32.8049 37.5758 33.3837 37.2114 34.311C36.8469 35.2402 36.882 36.7838 36.882 37.8272V47.5608C36.882 47.927 36.576 48.2203 36.1999 48.2203H32.6625C32.3059 48.1967 32.0272 47.9132 32.0272 47.5608L32.0233 37.8272C32.0233 35.7797 32.3546 32.7675 29.8424 32.7675C27.3302 32.7675 27.3965 35.7029 27.3965 37.8272V47.5608C27.3946 47.927 27.0886 48.2203 26.7124 48.2203H26.7066ZM92.1929 31.9544C89.5813 31.9544 89.4157 35.5474 89.4157 37.7878C89.4157 40.0283 89.3825 44.8203 92.1598 44.8203C94.937 44.8203 95.0364 40.9556 95.0364 38.599C95.0364 37.0535 94.9682 35.1989 94.5063 33.7302C94.1107 32.4544 93.3155 31.9524 92.1909 31.9524L92.1929 31.9544ZM92.1617 28.2059C97.418 28.2059 100.26 32.7675 100.26 38.5616C100.26 44.3556 97.1198 48.6062 92.1617 48.6062C87.2036 48.6062 84.1945 44.0465 84.1945 38.3666C84.1945 32.6868 87.036 28.2059 92.1617 28.2059ZM107.077 48.2203H103.547C103.195 48.1967 102.912 47.9132 102.912 47.5608L102.906 29.1922C102.937 28.8555 103.23 28.5937 103.586 28.5937H106.87C107.18 28.6094 107.436 28.8221 107.5 29.1056V31.915H107.566C108.558 29.4029 109.946 28.2059 112.392 28.2059C113.978 28.2059 115.533 28.7847 116.525 30.3695C117.451 31.8382 117.451 34.309 117.451 36.0868V47.6415C117.412 47.9663 117.124 48.2183 116.773 48.2183H113.224C112.896 48.1987 112.631 47.9545 112.592 47.6415V37.6717C112.592 35.6616 112.824 32.7242 110.378 32.7242C109.519 32.7242 108.726 33.303 108.328 34.1929C107.831 35.3131 107.765 36.4333 107.765 37.6717V47.5588C107.759 47.925 107.453 48.2183 107.075 48.2183L107.077 48.2203ZM63.4577 48.175C63.2239 48.3877 62.8867 48.4014 62.6216 48.2577C61.4464 47.2694 61.234 46.8146 60.5908 45.8736C58.6478 47.8738 57.2699 48.4743 54.7518 48.4743C51.7699 48.4743 49.4507 46.6158 49.4507 42.8987C49.4507 39.9948 51.0099 38.0201 53.2278 37.0515C55.1494 36.199 57.8331 36.0455 59.8873 35.8112V35.3466C59.8873 34.4921 59.9535 33.488 59.4566 32.7517C59.0259 32.0922 58.1975 31.8225 57.4686 31.8225C56.118 31.8225 54.9175 32.5214 54.6213 33.9704C54.5589 34.2933 54.327 34.6122 54.0073 34.6299L50.5733 34.2539C50.2829 34.187 49.9613 33.9527 50.0451 33.5058C50.8267 29.3576 54.4946 28.0641 57.8273 28.0306H58.0904C59.7957 28.0523 61.9746 28.5248 63.3018 29.8104C65.0247 31.4366 64.859 33.6062 64.859 35.9687V41.5423C64.859 43.2197 65.5489 43.954 66.196 44.8577C66.424 45.1845 66.4727 45.5704 66.1843 45.8086C65.4612 46.4209 64.1749 47.549 63.4694 48.1849L63.4597 48.177L63.4577 48.175ZM59.8892 39.4534C59.8892 40.8473 59.9224 42.0089 59.2266 43.2492C58.6633 44.2552 57.7688 44.8754 56.7748 44.8754C55.4164 44.8754 54.6232 43.83 54.6232 42.2806C54.6232 39.2329 57.3283 38.6797 59.8912 38.6797V39.4554L59.8892 39.4534ZM17.034 48.175C16.8001 48.3877 16.461 48.4014 16.1979 48.2577C15.0208 47.2694 14.8103 46.8146 14.1671 45.8736C12.2221 47.8738 10.8461 48.4743 8.32809 48.4743C5.34622 48.4743 3.02698 46.6158 3.02698 42.8987C3.02698 39.9948 4.58418 38.0201 6.80402 37.0515C8.72568 36.199 11.4094 36.0455 13.4616 35.8112V35.3466C13.4616 34.4921 13.5298 33.488 13.0309 32.7517C12.6002 32.0922 11.7719 31.8225 11.043 31.8225C9.69235 31.8225 8.48985 32.5214 8.19556 33.9704C8.13515 34.2933 7.90127 34.6122 7.5797 34.6299L4.14762 34.2539C3.85723 34.187 3.53565 33.9527 3.61946 33.5058C4.39903 29.3576 8.06693 28.0641 11.4016 28.0306H11.6647C13.37 28.0523 15.5489 28.5248 16.8761 29.8104C18.599 31.4366 18.4333 33.6062 18.4333 35.9687V41.5423C18.4333 43.2197 19.1233 43.954 19.7703 44.8577C19.9964 45.1845 20.0471 45.5704 19.7586 45.8086C19.0356 46.4209 17.7493 47.549 17.0418 48.1849L17.034 48.177V48.175ZM13.4635 39.4534C13.4635 40.8473 13.4967 42.0089 12.8009 43.2492C12.2377 44.2552 11.3431 44.8754 10.3491 44.8754C8.99073 44.8754 8.19751 43.83 8.19751 42.2806C8.19751 39.2329 10.9026 38.6797 13.4655 38.6797V39.4554L13.4635 39.4534ZM165.867 54.8078V53.4592C165.867 53.0753 166.054 52.8115 166.449 52.8351C167.19 52.9414 168.237 53.0477 168.979 52.8922C169.95 52.6874 170.645 51.9925 171.057 51.0416C171.637 49.7008 172.021 48.62 172.263 47.9112L164.896 29.4737C164.771 29.1607 164.734 28.5799 165.354 28.5799H167.929C168.42 28.5799 168.621 28.8949 168.73 29.204L174.072 44.1804L179.17 29.204C179.273 28.8969 179.484 28.5799 179.971 28.5799H182.4C183.013 28.5799 182.98 29.1587 182.858 29.4737L175.549 48.4861C174.604 51.016 173.343 55.048 170.505 55.7469C169.082 56.1229 167.287 55.9871 166.233 55.5402C165.968 55.4043 165.865 55.0441 165.865 54.8078H165.867ZM162.431 47.0981C162.431 47.4407 162.152 47.7222 161.811 47.7222H159.995C159.603 47.7222 159.334 47.4368 159.285 47.0981L159.102 45.8499C158.268 46.5626 157.243 47.1907 156.132 47.6277C153.996 48.4664 151.532 48.6042 149.445 47.3088C147.936 46.3736 147.133 44.5427 147.133 42.6566C147.133 41.1958 147.58 39.7487 148.566 38.6974C149.883 37.2602 151.793 36.5554 154.101 36.5554C155.494 36.5554 157.488 36.7208 158.938 37.1992V34.6851C158.938 32.1296 157.874 31.0232 155.066 31.0232C152.92 31.0232 151.277 31.35 148.993 32.0686C148.626 32.0804 148.412 31.8008 148.412 31.4563V30.023C148.412 29.6785 148.702 29.3458 149.018 29.2454C150.649 28.5268 152.961 28.0799 155.418 27.9972C158.622 27.9972 162.429 28.7276 162.429 33.7046V47.0962L162.431 47.0981ZM158.94 43.4283V39.6365C157.722 39.2998 155.705 39.1601 154.923 39.1601C153.69 39.1601 152.339 39.4554 151.634 40.2212C151.107 40.7843 150.868 41.5915 150.868 42.3711C150.868 43.3791 151.213 44.393 152.019 44.8931C152.957 45.5369 154.411 45.4581 155.779 45.0664C157.093 44.6903 158.326 44.0229 158.938 43.4303L158.94 43.4283ZM135.652 31.0822C139.683 31.0822 140.78 34.2834 140.78 37.9493C140.803 40.4201 140.353 42.6231 139.086 43.8851C138.139 44.8301 137.079 45.086 135.485 45.086C134.066 45.086 132.201 44.3379 130.805 43.2984V32.8167C132.257 31.6906 134.109 31.0822 135.652 31.0822ZM130.187 55.4654H127.755C127.414 55.4654 127.137 55.1838 127.137 54.8413V29.2355C127.137 28.893 127.416 28.6114 127.755 28.6114H129.616C130.008 28.6114 130.275 28.8969 130.326 29.2355L130.521 30.5762C132.265 29.013 134.51 28.009 136.648 28.009C142.639 28.009 144.61 32.9959 144.61 38.1816C144.61 43.7296 141.597 48.1888 136.498 48.1888C134.352 48.1888 132.345 47.3895 130.801 45.9996V54.8413C130.801 55.1838 130.523 55.4654 130.184 55.4654H130.187Z" fill="#333E47"/>
</g>
</g>
<defs>
<clipPath id="clip0_0_229">
<rect width="179.903" height="34.8649" fill="white" transform="translate(3.02698 28)"/>
</clipPath>
</defs>
</svg>
