<svg width="187" height="75" viewBox="0 0 187 75" fill="none" xmlns="http://www.w3.org/2000/svg">
<path d="M172.719 48.417H167.658C166.611 48.417 165.738 47.7236 165.738 46.8569C165.738 45.8168 166.611 45.2967 167.658 45.2967H176.906L179.002 40.62H167.658C162.947 40.62 160.328 43.3899 160.328 47.0302C160.328 50.6706 162.947 53.0938 166.96 53.0938H172.02C173.068 53.0938 173.941 53.7872 173.941 54.654C173.941 55.5207 173.243 56.2141 172.02 56.2141H160.852V60.8909H172.02C176.732 60.8909 179.351 58.1209 179.351 54.3073C179.351 50.4936 176.906 48.417 172.719 48.417ZM152.302 48.417H147.242C146.194 48.417 145.321 47.7236 145.321 46.8569C145.321 45.8168 146.194 45.2967 147.242 45.2967H156.49L158.585 40.62H147.242C142.53 40.62 139.915 43.3899 139.915 47.0302C139.915 50.6706 142.53 53.0938 146.547 53.0938H151.607C152.655 53.0938 153.528 53.7872 153.528 54.654C153.528 55.5207 152.83 56.2141 151.607 56.2141H140.439V60.8909H151.607C156.319 60.8909 158.934 58.1209 158.934 54.3073C159.109 50.4972 156.668 48.417 152.302 48.417ZM120.022 61.0606H137.474V56.3838H125.606V53.0938H137.299V48.417H125.606V45.127H137.474V40.4502H120.022V61.0642V61.0606ZM109.202 49.2838H103.443V45.127H109.202C110.774 45.127 111.647 46.1671 111.647 47.2072C111.647 48.4206 110.774 49.2874 109.202 49.2874M117.228 47.0338C117.228 43.0504 114.434 40.4502 109.897 40.4502H97.8553V61.0642H103.44V53.9642H105.535L111.818 61.0642H118.45L111.643 53.6175C115.132 52.7507 117.228 50.3275 117.228 47.0338ZM87.3886 49.6341H81.455V45.1306H87.3886C88.9602 45.1306 89.8334 46.1707 89.8334 47.3842C89.8334 48.5976 89.1349 49.6377 87.3886 49.6377M88.0871 40.4574H76.0452V61.0715H81.6296V54.3145H88.0871C92.7984 54.3145 95.5924 51.3712 95.5924 47.3842C95.4178 43.2274 92.6274 40.4538 88.0871 40.4538M75.0011 40.4538H67.8487L62.6135 46.6908L57.2037 40.4538H49.8731L59.121 50.6742L49.6984 61.0679H56.8508L62.4352 54.4842L68.0196 61.0679H75.3467L65.9241 50.5008L74.9974 40.4538H75.0011ZM31.5519 61.0679H48.9999V56.3911H36.958V53.101H48.6507V48.4242H36.958V45.1342H48.9999V40.4574H31.5519V61.0715V61.0679ZM170.623 26.5896L162.074 14.1193H155.093V34.56H160.677V21.5661L169.401 34.5564H176.033V14.1193H170.623V26.5932V26.5896ZM138.514 25.8962L141.479 18.9658L144.444 25.8962H138.51H138.514ZM137.816 14.1157L128.742 34.7297H134.851L136.597 30.573H146.194L147.94 34.7297H154.223L144.975 14.1193H137.819L137.816 14.1157ZM119.669 24.5094V24.1627C119.669 21.046 121.415 18.9658 124.904 18.9658H131.012V13.946H124.38C117.573 13.946 114.085 18.2761 114.085 23.9929V24.3396C114.085 30.7499 118.097 34.3866 124.206 34.3866H126.127L128.393 29.7098H125.079C121.765 29.8832 119.669 27.9763 119.669 24.513M105.71 34.56H111.294V14.1193H105.71V34.56ZM94.8903 22.7795H89.1312V18.6228H94.8903C96.4619 18.6228 97.335 19.6628 97.335 20.7029C97.335 21.9164 96.4619 22.7831 94.8903 22.7831M102.916 20.7029C102.916 16.7195 100.122 14.1193 95.5888 14.1193H83.5468V34.7333H89.1312V27.4599H91.2267L97.5097 34.5636H104.316L97.3387 27.1168C100.828 26.4234 102.923 23.8268 102.923 20.7065M62.4389 34.5636H79.887V29.8868H68.0196V26.5968H79.5377V21.92H68.0196V18.63H79.887V14.1193H62.4389V34.56V34.5636ZM44.8162 26.9399L40.1013 14.1193H31.5519V34.56H36.9616V19.8362L42.3714 34.56H47.2573L52.6671 19.8362V34.56H58.2515V14.1193H49.5275L44.8162 26.9363V26.9399ZM14.8023 25.8998L17.7673 18.9694L20.7323 25.8998H14.7987H14.8023ZM14.1001 14.1193L5.02686 34.56H11.1351L12.8814 30.4032H22.4786L24.2248 34.56H30.5077L21.2562 14.1193H14.1001Z" fill="#006FCF"/>
</svg>
