<svg width="186" height="75" viewBox="0 0 186 75" fill="none" xmlns="http://www.w3.org/2000/svg">
<path fill-rule="evenodd" clip-rule="evenodd" d="M54.6249 18.1887C53.2084 19.8765 50.9419 21.2077 48.6754 21.0175C48.3921 18.7354 49.5018 16.3107 50.8003 14.8131C52.2168 13.0778 54.6958 11.8417 56.7025 11.7466C56.9386 14.1238 56.0179 16.4534 54.6249 18.1887ZM56.6788 21.4692C54.6821 21.3535 52.8601 22.0738 51.3885 22.6556C50.4415 23.0301 49.6396 23.3471 49.0294 23.3471C48.3448 23.3471 47.5097 23.0131 46.5721 22.6381C45.3436 22.1467 43.939 21.5848 42.4661 21.6118C39.09 21.6594 35.95 23.5848 34.2265 26.6514C30.6852 32.7844 33.3058 41.8652 36.7291 46.8572C38.4054 49.3294 40.4121 52.0394 43.0563 51.9443C44.2196 51.9001 45.0564 51.5425 45.9225 51.1725C46.9195 50.7466 47.9552 50.304 49.5724 50.304C51.1336 50.304 52.124 50.735 53.0748 51.1487C53.9788 51.5421 54.847 51.9199 56.1358 51.8967C58.8744 51.8492 60.5979 49.4245 62.2741 46.9523C64.0831 44.2989 64.878 41.7093 64.9986 41.3163L65.0088 41.2833L65.0128 41.2709C65.0099 41.268 64.9875 41.2577 64.9481 41.2395C64.3434 40.9607 59.7215 38.8303 59.6771 33.1172C59.6326 28.322 63.3431 25.8924 63.9272 25.51L63.9273 25.5099L63.9276 25.5097L63.9278 25.5096C63.963 25.4865 63.9868 25.4709 63.9976 25.4628C61.6367 21.9446 57.9537 21.5643 56.6788 21.4692ZM75.637 51.6353V14.5755H89.4483C96.5783 14.5755 101.56 19.52 101.56 26.7466C101.56 33.9731 96.4838 38.9651 89.2594 38.9651H81.3504V51.6353H75.637ZM81.35 19.4247H87.9369C92.8948 19.4247 95.7279 22.0871 95.7279 26.7701C95.7279 31.4531 92.8948 34.1393 87.9133 34.1393H81.35V19.4247ZM120.424 47.1898C118.913 50.0899 115.584 51.9203 111.995 51.9203C106.683 51.9203 102.977 48.7349 102.977 43.9331C102.977 39.1788 106.565 36.445 113.199 36.0409L120.329 35.613V33.5687C120.329 30.5497 118.37 28.9095 114.876 28.9095C111.995 28.9095 109.894 30.4071 109.469 32.6891H104.322C104.488 27.8873 108.973 24.3929 115.041 24.3929C121.58 24.3929 125.83 27.8397 125.83 33.1883V51.635H120.542V47.1898H120.424ZM113.529 47.5227C110.484 47.5227 108.548 46.0489 108.548 43.7906C108.548 41.461 110.413 40.106 113.978 39.8921L120.329 39.4879V41.5798C120.329 45.0505 117.401 47.5227 113.529 47.5227ZM143.372 53.0855C141.081 59.5751 138.461 61.7145 132.889 61.7145C132.464 61.7145 131.048 61.667 130.717 61.5719V57.1266C131.071 57.1742 131.945 57.2217 132.393 57.2217C134.919 57.2217 136.336 56.152 137.21 53.3707L137.729 51.7305L128.049 24.7498H134.022L140.751 46.6434H140.869L147.598 24.7498H153.405L143.372 53.0855Z" fill="black"/>
</svg>
