<svg width="187" height="75" viewBox="0 0 187 75" fill="none" xmlns="http://www.w3.org/2000/svg">
<path d="M42.5847 41.0992C40.2304 50.7186 30.6245 56.5835 21.1288 54.1981C11.6331 51.8112 5.84609 42.0787 8.20042 32.4592C10.5547 22.8382 20.1606 16.9733 29.6563 19.3602C29.6729 19.3648 29.6879 19.3679 29.7045 19.3725C39.1746 21.7808 44.936 31.498 42.5847 41.0992Z" fill="#F7931A"/>
<path d="M29.4105 34.1653C28.857 36.4086 25.4801 35.2594 24.3851 34.9844L25.3534 31.0586C26.4333 31.3276 29.964 31.8441 29.3939 34.1653H29.4105ZM28.8072 40.5085C28.21 42.9535 24.1468 41.6301 22.8287 41.2985L23.8965 36.9633C25.2147 37.2995 29.4316 37.9565 28.8057 40.5085H28.8072ZM33.2353 34.1989C33.5837 31.809 31.7905 30.5253 29.3607 29.6727L30.1571 26.4361L28.1919 25.9425L27.4166 29.095C26.9069 28.9667 26.382 28.8429 25.8617 28.7252L26.6369 25.5391L24.6943 25.0455L23.898 28.2821L22.6582 28.0024L19.9736 27.3239L19.4593 29.4266C19.4593 29.4266 20.8981 29.7628 20.871 29.7857C21.42 29.853 21.8212 30.3481 21.7789 30.9074L20.871 34.5916C20.9389 34.6069 21.0067 34.6298 21.0701 34.6589L20.865 34.6023L19.5966 39.7674C19.4774 40.1448 19.0792 40.3526 18.7052 40.2334C18.7052 40.2609 17.2875 39.8804 17.2875 39.8804L16.3237 42.1237L18.853 42.7579L20.236 43.1231L19.4337 46.3932L21.3762 46.8868L22.1726 43.6503C22.6959 43.7955 23.2117 43.9299 23.717 44.0537L22.9312 47.3009L24.8738 47.7884L25.6762 44.5244C28.9973 45.1585 31.4828 44.9049 32.534 41.8655C33.3816 39.4205 32.4903 38.0131 30.7468 37.0932C32.0197 36.7967 32.9608 35.9715 33.2323 34.1989H33.2353Z" fill="white"/>
<path d="M53.7923 49.0951C54.8269 49.0981 55.8449 48.8307 56.7484 48.3203C57.6774 47.8176 58.4964 47.1269 59.1509 46.2895C59.8327 45.4047 60.3696 44.4145 60.7391 43.357C61.1297 42.2629 61.3273 41.1092 61.3258 39.9478C61.3876 38.7681 61.1388 37.593 60.6064 36.5432C60.1298 35.7302 59.2445 35.3146 57.961 35.3146C57.4014 35.3344 56.8449 35.4108 56.3004 35.5438C55.6247 35.6966 54.9988 36.0251 54.4845 36.4973L51.5511 48.9255L52.0216 49.0156C52.1619 49.0508 52.3052 49.0737 52.4469 49.0828C52.6309 49.1058 52.8149 49.1149 53.0004 49.1104L53.7923 49.0935V49.0951ZM59.6215 29.6682C60.9035 29.6376 62.1749 29.9035 63.3408 30.4429C64.3528 30.9319 65.2426 31.6471 65.9424 32.5349C66.6588 33.4533 67.1852 34.5077 67.4929 35.6355C67.8277 36.8793 67.9936 38.1645 67.9861 39.4542C67.9846 43.4686 66.4492 47.324 63.7012 50.2167C62.3695 51.6012 60.7843 52.7091 59.0348 53.4808C57.2008 54.2983 55.216 54.7155 53.2116 54.7032H51.7939C51.0232 54.6773 50.254 54.61 49.4908 54.5015C48.5588 54.364 47.6342 54.1776 46.7233 53.9407C45.7671 53.7115 44.8395 53.3768 43.9557 52.9429L51.7335 19.9326L58.6804 18.811L55.9128 30.527C56.4889 30.2626 57.0877 30.0502 57.7 29.8928C58.332 29.737 58.982 29.659 59.6321 29.6636L59.6215 29.6697V29.6682Z" fill="#4D4D4D"/>
<path d="M78.3914 27.2614C77.4864 27.2706 76.6026 26.9757 75.8787 26.4256C75.111 25.8097 74.6947 24.847 74.7716 23.8568C74.7686 23.2394 74.8983 22.6282 75.1532 22.0674C75.3976 21.5203 75.7399 21.0267 76.1667 20.6096C76.5921 20.2 77.0852 19.87 77.6222 19.6331C78.1817 19.3901 78.785 19.2663 79.3928 19.2679C80.2917 19.2648 81.1665 19.5613 81.8844 20.1083C82.6506 20.7257 83.0653 21.6869 82.9914 22.6771C82.9959 23.296 82.8677 23.9088 82.6159 24.4711C82.3715 25.0151 82.0307 25.5072 81.6084 25.9228C81.1846 26.3339 80.6914 26.6639 80.153 26.8993C79.5934 27.1422 78.9901 27.2645 78.3823 27.2584H78.3929L78.3914 27.2614ZM75.1638 54.063H68.5216L74.1337 30.171H80.8151L75.1638 54.063Z" fill="#4D4D4D"/>
<path d="M86.6277 24.2219L93.5746 23.1339L91.8477 30.1724H99.2877L97.9469 35.7133H90.5687L88.599 44.0477C88.4285 44.6864 88.323 45.3404 88.2837 46.0006C88.243 46.5339 88.3214 47.0703 88.51 47.57C88.6955 48.0177 89.0378 48.3799 89.4737 48.5846C90.0996 48.8643 90.7828 48.9926 91.4661 48.9544C92.1674 48.9575 92.8657 48.8872 93.5534 48.7466C94.2442 48.6091 94.9259 48.4226 95.591 48.1858L96.0888 53.3676C95.1356 53.7145 94.1612 54.0018 93.1719 54.2264C91.9502 54.4893 90.7014 54.6115 89.4526 54.5916C87.3879 54.5916 85.7937 54.2768 84.6535 53.661C83.5872 53.1109 82.732 52.2154 82.2298 51.1152C81.7381 49.9477 81.5239 48.6794 81.6039 47.4141C81.6778 45.9288 81.8874 44.4526 82.2298 43.0055L86.6307 24.2021V24.225L86.6277 24.2219Z" fill="#4D4D4D"/>
<path d="M99.0431 44.5245C99.0296 42.5425 99.3629 40.5728 100.028 38.7085C100.652 36.9466 101.612 35.3253 102.851 33.9362C104.1 32.5594 105.62 31.4622 107.313 30.7165C109.159 29.9096 111.153 29.5062 113.163 29.5337C114.377 29.5184 115.588 29.6483 116.772 29.9203C117.768 30.1587 118.736 30.501 119.662 30.9411L117.354 36.1963C116.757 35.9503 116.136 35.7379 115.495 35.5407C114.729 35.3253 113.937 35.2244 113.142 35.2443C111.135 35.1709 109.204 36.0297 107.899 37.5777C106.604 39.1211 105.954 41.1963 105.951 43.8032C105.89 45.125 106.234 46.4331 106.936 47.5502C107.592 48.5037 108.803 48.9789 110.567 48.9789C111.412 48.9789 112.255 48.8873 113.08 48.7039C113.816 48.545 114.537 48.3173 115.234 48.0254L115.727 53.4319C114.822 53.7787 113.898 54.0752 112.959 54.3166C111.768 54.5886 110.549 54.717 109.328 54.6987C107.706 54.746 106.094 54.4694 104.578 53.8857C103.373 53.3937 102.289 52.6418 101.4 51.6822C100.557 50.7516 99.9345 49.6391 99.5801 48.4288C99.2045 47.1559 99.0175 45.8326 99.0266 44.5031L99.0431 44.526V44.5245Z" fill="#4D4D4D"/>
<path d="M131.817 35.2656C130.88 35.2518 129.965 35.5544 129.215 36.1244C128.455 36.7203 127.817 37.4615 127.339 38.3065C126.812 39.205 126.417 40.1769 126.165 41.1901C125.923 42.1619 125.796 43.1583 125.79 44.1622C125.729 45.3863 125.975 46.6042 126.505 47.7075C126.986 48.554 127.85 48.9804 129.106 48.9804C130.044 48.9972 130.961 48.6931 131.708 48.117C132.47 47.521 133.109 46.7799 133.59 45.9364C134.109 45.0363 134.495 44.066 134.737 43.0528C134.978 42.0794 135.105 41.08 135.112 40.0745C135.174 38.8521 134.928 37.6311 134.397 36.5293C133.916 35.6889 133.046 35.2625 131.796 35.2625L131.818 35.2686L131.817 35.2656ZM128.496 54.7032C127.085 54.7368 125.683 54.4877 124.366 53.9742C123.259 53.5311 122.27 52.8328 121.476 51.9327C120.697 51.0265 120.11 49.966 119.749 48.8199C119.359 47.5348 119.17 46.1946 119.196 44.8499C119.2 42.9978 119.493 41.158 120.066 39.3991C120.621 37.628 121.488 35.9746 122.623 34.5137C123.763 33.0544 125.181 31.8411 126.79 30.9471C128.523 30.0028 130.467 29.526 132.437 29.5611C133.839 29.5352 135.233 29.7827 136.543 30.29C137.652 30.7256 138.647 31.4147 139.45 32.3041C140.225 33.2133 140.81 34.2723 141.172 35.4169C141.566 36.7035 141.753 38.0452 141.726 39.393C141.72 41.2436 141.435 43.0819 140.878 44.8438C140.332 46.6164 139.481 48.2774 138.365 49.7505C137.242 51.216 135.83 52.4293 134.219 53.3126C132.459 54.2615 130.489 54.7414 128.496 54.7032Z" fill="#4D4D4D"/>
<path d="M152.214 27.2615C151.31 27.2707 150.428 26.9773 149.707 26.4257C148.938 25.8098 148.523 24.8471 148.6 23.8569C148.597 23.2396 148.727 22.6283 148.982 22.0675C149.219 21.5235 149.553 21.0299 149.967 20.6097C150.395 20.2017 150.888 19.8716 151.428 19.6332C151.986 19.3902 152.586 19.2665 153.194 19.268C154.099 19.2604 154.984 19.5568 155.707 20.1085C156.473 20.7258 156.888 21.687 156.814 22.6772C156.814 23.2976 156.683 23.9089 156.426 24.4712C156.186 25.0152 155.846 25.5088 155.425 25.9229C155.001 26.334 154.508 26.6641 153.969 26.8994C153.414 27.1408 152.817 27.2631 152.214 27.2585V27.2615ZM148.992 54.0631H142.35L147.952 30.1711H154.638L148.991 54.0631H148.992Z" fill="#4D4D4D"/>
<path d="M159.422 31.2604C159.925 31.1152 160.485 30.9349 161.082 30.7393C161.679 30.5437 162.378 30.3634 163.147 30.1785C163.99 29.9966 164.842 29.8606 165.699 29.7689C166.764 29.6543 167.833 29.6008 168.904 29.6069C172.403 29.6069 174.814 30.6369 176.143 32.6968C176.938 33.9315 177.341 35.4367 177.351 37.2139V37.3422C177.345 38.4975 177.175 39.7674 176.841 41.1488L173.792 54.0476H167.127L170.088 41.4177C170.264 40.6338 170.409 39.8697 170.514 39.124C170.629 38.4776 170.629 37.8175 170.514 37.1726C170.404 36.6332 170.11 36.1518 169.685 35.8095C169.094 35.4168 168.391 35.2334 167.687 35.2885C166.8 35.29 165.914 35.3817 165.046 35.5635L160.694 54.0705H153.99L159.422 31.2619V31.2604Z" fill="#4D4D4D"/>
</svg>
