<svg width="186" height="75" viewBox="0 0 186 75" fill="none" xmlns="http://www.w3.org/2000/svg">
<path d="M69.3743 32.874C69.2061 32.976 69.0059 33.0114 68.813 32.9734C68.62 32.9354 68.4483 32.8266 68.3314 32.6684C67.757 31.8437 66.9862 31.1751 66.0887 30.723C65.1912 30.2708 64.1951 30.0493 63.1906 30.0784C59.2738 30.0784 56.8697 33.1775 56.8697 37.6036C56.8697 42.0297 59.3178 45.1877 63.2346 45.1877C64.2526 45.212 65.26 44.9761 66.1613 44.5023C67.0626 44.0285 67.8281 43.3325 68.3853 42.4801C68.4966 42.3199 68.6641 42.2073 68.8545 42.1647C69.045 42.1221 69.2445 42.1525 69.4135 42.2501L71.2741 43.3272C71.3757 43.3787 71.465 43.4515 71.5359 43.5406C71.6069 43.6298 71.6578 43.7331 71.6852 43.8437C71.7126 43.9543 71.7158 44.0695 71.6947 44.1814C71.6736 44.2934 71.6286 44.3994 71.5628 44.4924C70.6533 45.8558 69.4124 46.9658 67.9567 47.7185C66.5009 48.4712 64.8778 48.842 63.2396 48.796C56.9774 48.796 52.7325 44.2527 52.7325 37.6283C52.7325 31.0039 56.9774 26.5189 63.1465 26.5189C64.7574 26.4742 66.3548 26.8248 67.7989 27.54C69.243 28.2553 70.4899 29.3134 71.4307 30.6218C71.4954 30.7099 71.5413 30.8104 71.5656 30.917C71.5899 31.0236 71.592 31.134 71.5718 31.2414C71.5516 31.3489 71.5095 31.451 71.4481 31.5415C71.3868 31.632 71.3075 31.7089 71.2152 31.7675L69.3743 32.874Z" fill="black"/>
<path fill-rule="evenodd" clip-rule="evenodd" d="M83.0635 46.695V47.5958C83.0634 47.7016 83.0848 47.8063 83.1263 47.9037C83.1678 48.001 83.2286 48.0889 83.305 48.1621C83.3814 48.2353 83.4718 48.2923 83.5708 48.3296C83.6699 48.3669 83.7754 48.3838 83.8811 48.3792H85.9277C86.0305 48.3792 86.1324 48.359 86.2275 48.3196C86.3225 48.2802 86.4089 48.2225 86.4816 48.1498C86.5544 48.077 86.6121 47.9907 86.6514 47.8956C86.6908 47.8006 86.7111 47.6987 86.7111 47.5958V37.363C86.7111 33.6567 84.0771 32.1243 80.3462 32.1243C78.2491 32.1291 76.185 32.6468 74.3338 33.6323C74.157 33.7307 74.0249 33.8934 73.9647 34.0866C73.9046 34.2798 73.921 34.4888 74.0107 34.6702L74.6814 36.0705C74.7274 36.1644 74.7921 36.2481 74.8713 36.3164C74.9506 36.3847 75.043 36.4362 75.1428 36.4678C75.2425 36.4994 75.3477 36.5104 75.4518 36.5002C75.556 36.49 75.657 36.4587 75.7487 36.4084C77.0705 35.7215 78.5337 35.3511 80.023 35.3263C81.3206 35.3263 82.853 35.6839 82.853 37.0106C82.853 38.3984 81.1765 38.6351 79.1082 38.9271C78.9414 38.9505 78.7748 38.9743 78.6081 38.9983C76.4735 39.297 73.0118 39.9629 73.0118 43.8454C73.0118 46.9643 75.269 48.7416 78.52 48.7416C80.7183 48.7416 82.0844 47.9582 83.0635 46.695ZM79.8548 41.4184C81.0912 41.2014 82.2125 41.0047 82.853 40.5211V42.3426C82.853 44.7219 81.1394 45.7452 79.3033 45.7452C77.8247 45.7452 76.8014 45.0841 76.8014 43.6692C76.8014 42.1318 77.9765 41.7548 79.3915 41.5003C79.5472 41.4723 79.7018 41.4452 79.8548 41.4184Z" fill="black"/>
<path d="M90.0746 44.3254C90.2067 44.1716 90.3932 44.075 90.5949 44.0559C90.7967 44.0367 90.9981 44.0965 91.1567 44.2226C92.4657 45.2112 94.0702 45.7287 95.7101 45.6914C97.3991 45.6914 98.6476 45.148 98.6476 43.826C98.6476 42.6216 97.502 42.3817 94.7309 41.897C91.7932 41.4073 88.9828 40.4281 88.9828 37.0793C88.9828 33.5883 91.994 32.1148 95.426 32.1148C97.5783 32.0829 99.6793 32.7723 101.394 34.073C101.478 34.1385 101.547 34.2204 101.599 34.3136C101.65 34.4069 101.681 34.5095 101.691 34.6153C101.701 34.7212 101.69 34.8279 101.657 34.9291C101.625 35.0303 101.572 35.1238 101.502 35.204L100.523 36.3546C100.393 36.5089 100.209 36.6076 100.009 36.6304C99.8083 36.6532 99.6068 36.5983 99.4457 36.4771C98.2391 35.5945 96.7788 35.1272 95.2841 35.1453C93.8397 35.1453 92.5766 35.5665 92.5766 36.7071C92.5766 37.9753 94.3489 38.2151 96.1262 38.5187C99.9206 39.1797 102.33 40.2617 102.33 43.4148C102.33 46.7245 99.6807 48.7711 95.4751 48.7711C93.1764 48.8413 90.9253 48.1071 89.1102 46.6951C89.0287 46.6284 88.9614 46.5462 88.9121 46.4532C88.8627 46.3603 88.8324 46.2584 88.8228 46.1536C88.8132 46.0488 88.8246 45.9432 88.8563 45.8428C88.888 45.7424 88.9393 45.6494 89.0073 45.5691L90.0746 44.3254ZM104.655 47.5959V27.6689C104.655 27.566 104.675 27.4641 104.715 27.3691C104.754 27.274 104.812 27.1877 104.885 27.1149C104.957 27.0422 105.044 26.9845 105.139 26.9451C105.234 26.9057 105.336 26.8855 105.438 26.8855H107.696C108.128 26.8855 108.479 27.2362 108.479 27.6689V34.4744C109.041 33.7245 109.774 33.1199 110.617 32.7111C111.461 32.3022 112.389 32.101 113.326 32.1242C116.665 32.1242 118.624 34.5037 118.624 37.9017V47.5959C118.624 47.6987 118.603 47.8006 118.564 47.8957C118.525 47.9907 118.467 48.0771 118.394 48.1498C118.321 48.2226 118.235 48.2803 118.14 48.3196C118.045 48.359 117.943 48.3793 117.84 48.3793H115.583C115.375 48.3793 115.176 48.2967 115.029 48.1498C114.882 48.0029 114.8 47.8036 114.8 47.5959V38.783C114.8 37.0938 114.256 35.5614 112.092 35.5614C110.041 35.5614 108.479 37.0058 108.479 39.4145V47.6007C108.479 47.8085 108.396 48.0077 108.25 48.1547C108.103 48.3016 107.903 48.3841 107.696 48.3841H105.438C105.335 48.3847 105.232 48.3648 105.137 48.3253C105.041 48.2859 104.954 48.2277 104.881 48.1543C104.808 48.081 104.751 47.9938 104.712 47.8979C104.673 47.802 104.654 47.6993 104.655 47.5959Z" fill="black"/>
<path fill-rule="evenodd" clip-rule="evenodd" d="M141.836 43.0523L143.462 47.8506C143.511 48.0067 143.608 48.1435 143.738 48.2419C143.869 48.3402 144.027 48.3951 144.191 48.3989H146.987C147.114 48.3995 147.238 48.3694 147.35 48.3114C147.462 48.2534 147.558 48.1691 147.631 48.0657C147.704 47.9624 147.75 47.843 147.767 47.7177C147.784 47.5924 147.77 47.4649 147.726 47.3462L140.357 27.4192C140.301 27.2688 140.2 27.139 140.068 27.0472C139.936 26.9554 139.779 26.9058 139.619 26.9051H136.001C135.843 26.9032 135.689 26.949 135.558 27.0364C135.426 27.1237 135.325 27.2487 135.266 27.3948L127.868 47.3266C127.824 47.4449 127.81 47.5719 127.826 47.6968C127.843 47.8216 127.889 47.9408 127.961 48.0441C128.033 48.1474 128.129 48.2318 128.24 48.2901C128.352 48.3485 128.476 48.3791 128.602 48.3793H131.25C131.413 48.3799 131.573 48.3291 131.705 48.2342C131.838 48.1393 131.938 48.0051 131.99 47.8506L133.62 43.0523H141.836ZM134.61 39.7084L137.772 30.3765L140.813 39.7084H134.61ZM153.4 34.5039V33.27C153.406 33.1638 153.39 33.0577 153.353 32.958C153.316 32.8584 153.259 32.7674 153.185 32.6907C153.112 32.6138 153.024 32.5526 152.926 32.5108C152.829 32.469 152.724 32.4475 152.617 32.4476H150.36C149.927 32.4476 149.577 32.7984 149.577 33.2309V52.8152C149.577 53.2478 149.927 53.5986 150.36 53.5986H152.617C153.05 53.5986 153.4 53.2478 153.4 52.8152V46.3181C153.953 47.0942 154.69 47.7207 155.545 48.1412C156.399 48.5617 157.345 48.763 158.297 48.7269C162.629 48.7269 165.43 45.0992 165.43 40.4037C165.43 35.7085 162.629 32.1244 158.297 32.1244C157.348 32.086 156.404 32.2832 155.55 32.6984C154.695 33.1136 153.957 33.7339 153.4 34.5039ZM161.41 40.4037C161.41 43.1407 160.142 45.4027 157.494 45.4027C154.797 45.4027 153.4 43.1454 153.4 40.4037C153.4 37.6618 154.87 35.4635 157.494 35.4635C160.117 35.4635 161.41 37.6668 161.41 40.4037ZM171.614 34.5037V33.2699C171.62 33.1636 171.604 33.0573 171.568 32.9574C171.531 32.8575 171.474 32.7661 171.401 32.6889C171.328 32.6118 171.239 32.5506 171.141 32.5091C171.043 32.4676 170.937 32.4466 170.831 32.4474H168.573C168.365 32.4474 168.166 32.53 168.019 32.6769C167.872 32.8238 167.79 33.023 167.79 33.2306V52.8152C167.79 53.2477 168.141 53.5983 168.573 53.5983H170.831C171.263 53.5983 171.614 53.2477 171.614 52.815V46.3178C172.167 47.0932 172.904 47.7192 173.758 48.1396C174.613 48.5601 175.559 48.7618 176.511 48.7268C180.848 48.7268 183.649 45.0987 183.649 40.4034C183.649 35.7082 180.848 32.1242 176.511 32.1242C175.561 32.0866 174.618 32.2842 173.763 32.6993C172.909 33.1145 172.171 33.7343 171.614 34.5037ZM179.629 40.4034C179.629 43.1404 178.361 45.4024 175.712 45.4024C173.029 45.4024 171.614 43.1453 171.614 40.4034C171.614 37.6617 173.087 35.4634 175.712 35.4634C178.336 35.4634 179.629 37.6665 179.629 40.4034Z" fill="black"/>
<path fill-rule="evenodd" clip-rule="evenodd" d="M29.9063 16.4864C34.1758 16.4864 36.2762 16.4864 38.5822 17.211C39.8198 17.6592 40.9437 18.3739 41.8744 19.3046C42.805 20.2353 43.5198 21.3591 43.9679 22.5967C44.6925 24.8833 44.6925 27.0033 44.6925 31.253V44.0415C44.6925 48.2865 44.6925 50.4064 43.9679 52.6978C43.5197 53.9353 42.805 55.0592 41.8743 55.9899C40.9436 56.9206 39.8198 57.6353 38.5822 58.0835C36.2957 58.8081 34.1758 58.8081 29.9259 58.8081H17.0982C12.8533 58.8081 10.7334 58.8081 8.44191 58.0835C7.20436 57.6353 6.08046 56.9206 5.14978 55.9899C4.21909 55.0592 3.50438 53.9353 3.05623 52.6978C2.35126 50.4112 2.35126 48.3108 2.35126 44.0415V31.2335C2.35126 26.9885 2.35126 24.8688 3.07584 22.5771C3.52397 21.3395 4.23868 20.2156 5.16937 19.2849C6.10005 18.3542 7.22396 17.6395 8.46152 17.1914C10.7285 16.4864 12.8533 16.4864 17.0983 16.4864H29.9063Z" fill="#00D54B"/>
<path d="M24.5795 30.3572C26.6594 30.3604 28.6712 31.0992 30.2589 32.4429C30.4229 32.5914 30.6374 32.6717 30.8586 32.6671C31.0798 32.6626 31.2909 32.5736 31.4486 32.4184L33.0839 30.7783C33.1659 30.6969 33.2302 30.5995 33.2727 30.492C33.3153 30.3846 33.3351 30.2696 33.3309 30.1541C33.3268 30.0387 33.2988 29.9253 33.2487 29.8212C33.1986 29.7171 33.1275 29.6245 33.0399 29.5492C31.7555 28.4567 30.2704 27.6252 28.6677 27.1014L29.1573 24.6875C29.1827 24.5634 29.1802 24.4353 29.1498 24.3123C29.1195 24.1894 29.0622 24.0748 28.982 23.9768C28.9018 23.8788 28.8008 23.7999 28.6863 23.7458C28.5718 23.6917 28.4467 23.6639 28.3201 23.6642H25.1719C24.9769 23.664 24.7875 23.7304 24.6353 23.8524C24.4831 23.9744 24.377 24.1446 24.3347 24.3351L23.894 26.4942C19.703 26.6999 16.1484 28.7758 16.1484 33.0304C16.1484 36.7073 19.0861 38.2888 22.1902 39.3954C25.1277 40.4871 26.6848 40.8937 26.6848 42.4309C26.6848 43.9682 25.1327 44.9376 22.8463 44.9376C20.6274 44.9731 18.4836 44.1343 16.878 42.6025C16.7187 42.4458 16.5041 42.358 16.2807 42.358C16.0572 42.358 15.8427 42.4458 15.6833 42.6025L13.9305 44.3158C13.8486 44.3948 13.7835 44.4895 13.739 44.5942C13.6945 44.6989 13.6716 44.8116 13.6716 44.9253C13.6716 45.0391 13.6945 45.1517 13.739 45.2565C13.7835 45.3612 13.8486 45.4559 13.9305 45.5349C15.3586 46.8726 17.1018 47.8275 18.9979 48.311L18.5083 50.5485C18.4824 50.6735 18.4843 50.8027 18.5139 50.9269C18.5434 51.0511 18.5999 51.1673 18.6793 51.2672C18.7587 51.3672 18.859 51.4485 18.9733 51.5054C19.0876 51.5623 19.213 51.5933 19.3406 51.5964H22.4986C22.6952 51.5975 22.8861 51.5309 23.0395 51.4079C23.1928 51.2849 23.2992 51.1129 23.3408 50.9207L23.7961 48.8007C28.8194 48.4922 31.8893 45.7897 31.8893 41.8335C31.8893 38.1909 28.8292 36.6536 25.1131 35.4001C22.9882 34.6021 21.1521 34.0782 21.1521 32.5017C21.1521 30.9252 22.8658 30.3572 24.5795 30.3572Z" fill="white"/>
</svg>
