<svg width="187" height="75" viewBox="0 0 187 75" fill="none" xmlns="http://www.w3.org/2000/svg">
<path d="M55.4343 39.7378C55.4343 40.0478 55.1721 40.31 54.8449 40.31H44C44.2775 42.993 46.2907 45.4463 49.1363 45.4463C51.0826 45.4463 52.5217 44.7096 53.601 43.1556C53.7158 42.993 53.8785 42.8782 54.0756 42.8782C54.3856 42.8782 54.6152 43.1078 54.6152 43.4178C54.6152 43.5326 54.5827 43.6149 54.5329 43.6953C53.4364 45.5918 51.2625 46.5256 49.1344 46.5256C45.4869 46.5256 42.869 43.2551 42.869 39.7703C42.869 36.2855 45.4697 33.015 49.1344 33.015C52.7991 33.015 55.4152 36.253 55.4324 39.7378H55.4343ZM54.2727 39.2307C54.043 36.5477 51.982 34.0943 49.1363 34.0943C46.2907 34.0943 44.2794 36.5477 44 39.2307H54.2727ZM68.6005 33.2772C68.9105 33.2772 69.1401 33.5547 69.1401 33.8168C69.1401 34.1269 68.9105 34.3565 68.6005 34.3565H65.6897V45.7889C65.6897 46.0664 65.4601 46.3285 65.1501 46.3285C64.8401 46.3285 64.6104 46.051 64.6104 45.7889V34.3565H61.8126C61.5026 34.3565 61.273 34.1269 61.273 33.8168C61.273 33.5394 61.5026 33.2772 61.8126 33.2772H64.6104V29.1073C64.6104 28.8298 64.8228 28.5676 65.1003 28.5351C65.4429 28.5025 65.7051 28.7475 65.7051 29.0747V33.2791H68.6005V33.2772ZM86.3633 38.8058V45.7238C86.3633 46.0338 86.0858 46.2635 85.8237 46.2635C85.5136 46.2635 85.284 46.0338 85.284 45.7238V38.8058C85.284 36.4673 83.9597 34.1441 81.359 34.1441C78.0215 34.1441 76.5825 37.0548 76.7796 40.0478C76.7796 40.1301 76.8121 40.4726 76.8121 40.5224V45.7066C76.8121 45.9841 76.5997 46.2462 76.3222 46.2788C75.9796 46.3113 75.7175 46.0664 75.7175 45.7391V22.9892C75.7175 22.7117 75.9471 22.4495 76.2571 22.4495C76.5671 22.4495 76.7968 22.727 76.7968 22.9892V35.8454C77.7288 34.1766 79.3975 33.0475 81.3437 33.0475C84.5491 33.0475 86.3652 35.8454 86.3652 38.8058H86.3633ZM105.843 39.7378C105.843 40.0478 105.581 40.31 105.253 40.31H94.4085C94.6859 42.993 96.6991 45.4463 99.5448 45.4463C101.491 45.4463 102.93 44.7096 104.009 43.1556C104.124 42.993 104.287 42.8782 104.484 42.8782C104.794 42.8782 105.024 43.1078 105.024 43.4178C105.024 43.5326 104.991 43.6149 104.941 43.6953C103.845 45.5918 101.671 46.5256 99.5429 46.5256C95.8954 46.5256 93.2775 43.2551 93.2775 39.7703C93.2775 36.2855 95.8782 33.015 99.5429 33.015C103.208 33.015 105.808 36.253 105.841 39.7378H105.843ZM104.666 39.2307C104.436 36.5477 102.375 34.0943 99.5295 34.0943C96.6838 34.0943 94.6725 36.5477 94.3931 39.2307H104.666ZM119.158 33.7843C119.158 34.1269 118.961 34.324 118.651 34.3737C115.461 34.8483 114.022 37.449 114.022 40.4746V45.6587C114.022 45.9362 113.809 46.1984 113.532 46.2309C113.189 46.2635 112.927 46.0185 112.927 45.6913V33.8666C112.927 33.5891 113.14 33.3269 113.417 33.2944C113.76 33.2619 114.022 33.5068 114.022 33.8341V36.2377C114.921 34.7163 116.705 33.2772 118.569 33.2772C118.846 33.2772 119.158 33.4743 119.158 33.7843ZM137.003 39.7378C137.003 40.0478 136.741 40.31 136.414 40.31H125.569C125.847 42.993 127.86 45.4463 130.705 45.4463C132.652 45.4463 134.091 44.7096 135.17 43.1556C135.285 42.993 135.447 42.8782 135.645 42.8782C135.955 42.8782 136.184 43.1078 136.184 43.4178C136.184 43.5326 136.152 43.6149 136.102 43.6953C135.005 45.5918 132.831 46.5256 130.703 46.5256C127.056 46.5256 124.438 43.2551 124.438 39.7703C124.438 36.2855 127.039 33.015 130.703 33.015C134.368 33.015 136.984 36.253 137.001 39.7378H137.003ZM135.842 39.2307C135.612 36.5477 133.551 34.0943 130.705 34.0943C127.86 34.0943 125.848 36.5477 125.569 39.2307H135.842ZM154.537 33.9144V45.7889C154.537 46.0989 154.259 46.3285 153.997 46.3285C153.687 46.3285 153.457 46.0989 153.457 45.7889V43.5326C152.558 45.3162 150.971 46.6079 148.943 46.6079C145.72 46.6079 143.939 43.8101 143.939 40.8496V33.8991C143.939 33.6216 144.168 33.3595 144.478 33.3595C144.788 33.3595 145.018 33.637 145.018 33.8991V40.8496C145.018 43.1882 146.342 45.5114 148.943 45.5114C152.59 45.5114 153.457 42.0935 153.457 38.314V33.8819C153.457 33.5547 153.8 33.2274 154.194 33.3748C154.391 33.4724 154.537 33.6848 154.537 33.9144ZM181.998 38.7561V45.7066C181.998 46.0166 181.72 46.2462 181.458 46.2462C181.148 46.2462 180.919 46.0166 180.919 45.7066V38.7561C180.919 36.4175 179.594 34.1269 176.994 34.1269C173.723 34.1269 172.479 37.627 172.479 40.3425V45.7066C172.479 46.0166 172.202 46.2462 171.94 46.2462C171.63 46.2462 171.4 46.0166 171.4 45.7066V38.7561C171.4 36.4175 170.076 34.1269 167.475 34.1269C164.172 34.1269 162.813 36.7276 162.928 40.1952C162.928 40.2775 162.961 40.4248 162.928 40.4726V45.6894C162.928 45.9668 162.716 46.229 162.438 46.2616C162.096 46.2941 161.833 46.0491 161.833 45.7219V33.8628C161.833 33.5853 162.046 33.3231 162.323 33.2906C162.666 33.258 162.928 33.503 162.928 33.8302V35.809C163.86 34.1403 165.529 33.0456 167.475 33.0456C169.683 33.0456 171.4 34.4522 172.104 36.496C173.004 34.4675 174.755 33.0456 176.996 33.0456C180.186 33.0456 182 35.809 182 38.7542L181.998 38.7561Z" fill="#3B3B3B"/>
<path opacity="0.6" d="M18.927 44.8394L32.5199 36.8076L18.927 30.6417L5.35132 36.8096L18.927 44.8413V44.8394Z" fill="black"/>
<path opacity="0.45" d="M18.927 30.6437V14.2702L5.35132 36.8096L18.927 44.8414V30.6437Z" fill="black"/>
<path opacity="0.8" d="M18.9269 44.8395L32.5198 36.8077L18.9269 14.2702V44.8395Z" fill="black"/>
<path opacity="0.45" d="M18.927 47.4076L5.35132 39.3931L18.927 58.5299V47.4076Z" fill="black"/>
<path opacity="0.8" d="M32.5198 39.3931L18.9269 47.4076V58.5299L32.5198 39.3931Z" fill="black"/>
</svg>
