<svg width="186" height="75" viewBox="0 0 186 75" fill="none" xmlns="http://www.w3.org/2000/svg">
<path d="M119.437 28.7618C116.415 28.7618 113.423 31.4619 113.103 35.3274V29.0744H108.745V47.9469H113.161V38.8233C113.161 36.2653 115.021 32.6556 119.466 32.6556V28.7618H119.437ZM165.72 44.9341V32.0019H168.277C171.676 32.0019 174.465 34.0768 174.465 38.3686C174.465 42.6603 171.705 44.9341 168.277 44.9341H165.72ZM161.333 47.9469H168.8C173.39 47.9469 179.027 45.0194 179.027 38.3686C179.027 31.7177 173.39 29.1028 168.8 29.1028H161.333V47.9469ZM144.627 38.5675C144.627 35.1284 146.428 32.3146 149.421 32.3146C152.413 32.3146 153.895 35.1284 153.895 38.5675C153.895 42.0066 152.297 44.8204 149.421 44.8204C146.545 44.8204 144.627 42.0066 144.627 38.5675ZM140.153 38.7665C140.153 44.3941 143.145 48.3448 147.823 48.3448C151.222 48.3448 153.256 46.1563 154.331 42.6035V47.9469H158.689V29.0744H154.331V34.0768C153.372 30.7513 151.338 28.7618 148.142 28.7618C143.349 28.7902 140.153 33.0536 140.153 38.7665ZM40.7006 48.3733C35.2675 48.3733 32.0715 44.1099 32.0715 38.7949C32.0715 33.4799 35.5871 28.7902 42.2986 28.7902C49.01 28.7902 51.5668 33.3662 51.683 35.9811H46.6857C46.5695 34.5315 45.2911 32.343 42.2114 32.343C38.8992 32.343 36.7783 35.1568 36.7783 38.5959C36.7783 42.035 38.8992 44.8489 42.2114 44.8489C45.204 44.8489 46.4823 42.5467 47.0053 40.2729H42.2114V38.397H52.2641V47.9469H47.8479V41.8929C47.5283 44.0815 46.1337 48.3733 40.7006 48.3733ZM61.2128 48.3733C57.058 48.3733 54.5013 45.6731 54.5013 40.2444V29.1028H58.9756V40.2444C58.9756 43.0583 60.3702 44.4225 62.6945 44.4225C67.285 44.4225 68.9702 38.9086 68.9702 35.0431V29.1028H73.4445V47.9469H69.0864V40.955C68.2438 44.8204 65.8905 48.3733 61.2128 48.3733ZM100.203 28.7618C96.3972 28.7618 93.9857 32.3714 93.2013 35.6968C93.056 31.2345 90.8188 28.7618 87.2161 28.7618C84.1073 28.7618 81.231 31.4619 80.4756 35.7537V29.0744H76.1175V47.9469H80.5337V41.1824C80.5337 39.5055 81.26 32.6272 85.7053 32.6272C88.5817 32.6272 88.8722 35.1568 88.8722 38.6528V47.9469H93.2884V41.1824C93.2884 39.5055 94.0438 32.6272 98.4891 32.6272C101.365 32.6272 101.656 35.1568 101.656 38.6528V47.9469H106.072V36.7769C106.101 31.4335 104.155 28.7618 100.203 28.7618ZM128.909 28.7618C123.185 28.7618 119.321 33.1388 119.321 38.5675C119.321 44.5362 123.011 48.3733 128.909 48.3733C134.807 48.3733 138.584 43.9962 138.584 38.5675C138.555 32.5988 134.807 28.7618 128.909 28.7618ZM128.909 45.0194C125.567 45.0194 123.417 42.2624 123.417 38.5675C123.417 34.8726 125.567 32.1156 128.909 32.1156C132.25 32.1156 134.313 34.8726 134.313 38.5675C134.313 42.2624 132.221 45.0194 128.909 45.0194Z" fill="black"/>
<path d="M15.3944 49.027C21.2994 49.027 26.0863 44.3441 26.0863 38.5675C26.0863 32.7909 21.2994 28.1081 15.3944 28.1081C9.48944 28.1081 4.70251 32.7909 4.70251 38.5675C4.70251 44.3441 9.48944 49.027 15.3944 49.027Z" fill="#FF90E8"/>
<path d="M14.4647 43.8256C11.3269 43.8256 9.49646 41.3813 9.49646 38.3116C9.49646 35.242 11.5302 32.5703 15.3944 32.5703C19.2586 32.5703 20.7404 35.2136 20.7985 36.6916H17.9221C17.864 35.8389 17.1377 34.5883 15.3363 34.5883C13.535 34.5883 12.1985 36.2084 12.1985 38.1695C12.1985 40.1307 13.4188 41.7508 15.3363 41.7508C17.0505 41.7508 17.8059 40.4433 18.0965 39.1075H15.3073V38.0274H21.1181V43.5414H18.5613V40.0738C18.387 41.3813 17.6025 43.8256 14.4647 43.8256Z" fill="black"/>
</svg>
