<svg width="186" height="75" viewBox="0 0 186 75" fill="none" xmlns="http://www.w3.org/2000/svg">
<path d="M167.519 45.2328C165.02 45.2423 163.002 47.2757 163.011 49.7747C163.011 49.7779 163.011 49.7804 163.011 49.7829C162.997 52.2819 165.011 54.3191 167.51 54.3331C167.513 54.3331 167.516 54.3331 167.519 54.3331C170.005 54.3331 172.027 52.2946 172.027 49.7829C172.041 47.2839 170.026 45.2468 167.527 45.2328C167.525 45.2328 167.522 45.2328 167.519 45.2328ZM152.684 41.7187C152.684 38.2764 149.77 35.4896 146.175 35.4896C142.581 35.4896 139.667 38.2808 139.667 41.7187C139.667 45.1566 142.585 47.9439 146.179 47.9439C149.773 47.9439 152.683 45.1572 152.683 41.7187H152.684ZM152.709 29.6112H159.89V53.8217H152.709V52.2737C150.616 53.7188 148.132 54.4919 145.588 54.4893C138.597 54.4893 132.931 48.7716 132.931 41.7181C132.931 34.6645 138.598 28.9468 145.588 28.9468C148.231 28.9468 150.679 29.763 152.709 31.1625V29.6106V29.6112ZM95.2301 32.7658V29.615H87.876V53.8211H95.2472V42.5172C95.2472 38.7026 99.3407 36.6559 102.183 36.6559H102.267V29.615C99.3489 29.615 96.6721 30.8753 95.2301 32.7658ZM76.9107 41.7187C76.9107 38.2764 73.9969 35.4896 70.4022 35.4896C66.8074 35.4896 63.8936 38.2808 63.8936 41.7187C63.8936 45.1566 66.8118 47.9439 70.406 47.9439C74.0001 47.9439 76.9101 45.1572 76.9101 41.7187H76.9107ZM76.9361 29.6112H84.1212V53.8217H76.9361V52.2737C74.9059 53.6693 72.4578 54.4893 69.8146 54.4893C62.8239 54.4893 57.1576 48.7716 57.1576 41.7181C57.1576 34.6645 62.8245 28.9468 69.8146 28.9468C72.4578 28.9468 74.9059 29.763 76.9361 31.1625V29.6106V29.6112ZM120.169 28.9639C117.301 28.9639 114.586 29.8602 112.768 32.3389V29.6157H105.617V53.8217H112.857V41.1013C112.857 37.422 115.301 35.6161 118.249 35.6161C121.403 35.6161 123.222 37.5192 123.222 41.0504V53.8217H130.394V38.4282C130.394 32.795 125.954 28.9639 120.169 28.9639H120.169ZM46.6954 53.8217H54.2146V18.8276H46.6954V53.8217ZM13.6679 53.83H21.6312V18.8193H13.6717L13.6673 53.8306L13.6679 53.83ZM41.5189 18.8193C41.5189 26.3976 38.5924 33.4512 33.374 38.6912L44.3775 53.8306H34.5454L22.5904 37.3801L25.6776 35.0456C30.7734 31.2126 33.7564 25.1958 33.7208 18.8193H41.5189Z" fill="#0A0B09"/>
</svg>
