<svg width="187" height="75" viewBox="0 0 187 75" fill="none" xmlns="http://www.w3.org/2000/svg">
<path d="M104.119 37.5989C104.119 53.9712 90.9985 67.2435 74.8141 67.2435C58.6297 67.2435 45.5096 53.9712 45.5096 37.5989C45.5096 21.2266 58.6297 7.95425 74.8141 7.95425C90.9985 7.95425 104.119 21.2266 104.119 37.5989Z" fill="#ED0006"/>
<path d="M142.135 37.5989C142.135 53.9712 129.015 67.2435 112.831 67.2435C96.6462 67.2435 83.5262 53.9712 83.5262 37.5989C83.5262 21.2266 96.6462 7.95425 112.831 7.95425C129.015 7.95425 142.135 21.2266 142.135 37.5989Z" fill="#0099DF"/>
<path fill-rule="evenodd" clip-rule="evenodd" d="M93.8225 60.1617C100.123 54.7243 104.118 46.6336 104.118 37.5989C104.118 28.5642 100.123 20.4735 93.8225 15.0361C87.5217 20.4735 83.5265 28.5642 83.5265 37.5989C83.5265 46.6336 87.5217 54.7243 93.8225 60.1617Z" fill="#6C6BBD"/>
</svg>
