<svg width="187" height="75" viewBox="0 0 187 75" fill="none" xmlns="http://www.w3.org/2000/svg">
<path fill-rule="evenodd" clip-rule="evenodd" d="M112.558 68.2883C129.664 68.2883 143.53 54.5866 143.53 37.6847C143.53 20.7828 129.664 7.08109 112.558 7.08109C104.892 7.08109 97.8765 9.83314 92.4681 14.392C87.0597 9.83315 80.0441 7.08109 72.3779 7.08109C55.2725 7.08109 41.4058 20.7828 41.4058 37.6847C41.4058 54.5866 55.2725 68.2883 72.3779 68.2883C80.0441 68.2883 87.0597 65.5362 92.4681 60.9774C97.8765 65.5362 104.892 68.2883 112.558 68.2883Z" fill="#ED0006"/>
<path fill-rule="evenodd" clip-rule="evenodd" d="M92.4678 60.9775C99.1272 55.3643 103.35 47.0117 103.35 37.6847C103.35 28.3576 99.1272 20.0051 92.4678 14.3918C97.8762 9.8331 104.892 7.08109 112.558 7.08109C129.663 7.08109 143.53 20.7828 143.53 37.6847C143.53 54.5866 129.663 68.2883 112.558 68.2883C104.892 68.2883 97.8762 65.5363 92.4678 60.9775Z" fill="#F9A000"/>
<path fill-rule="evenodd" clip-rule="evenodd" d="M92.4681 60.9775C99.1274 55.3642 103.35 47.0117 103.35 37.6847C103.35 28.3577 99.1274 20.0053 92.4681 14.392C85.8087 20.0053 81.5861 28.3577 81.5861 37.6847C81.5861 47.0117 85.8087 55.3642 92.4681 60.9775Z" fill="#FF5E00"/>
</svg>
