<svg width="186" height="75" viewBox="0 0 186 75" fill="none" xmlns="http://www.w3.org/2000/svg">
<path d="M162.518 37.9112C161.58 37.293 160.535 36.8454 159.555 36.2912C158.915 35.9289 158.233 35.6198 157.69 35.1615C156.752 34.3835 156.944 32.8702 157.924 32.2094C159.342 31.2716 161.676 31.7938 161.921 33.7121C161.921 33.7547 161.963 33.7761 162.006 33.7761H164.137C164.191 33.7761 164.233 33.7334 164.223 33.6801C164.116 32.3586 163.594 31.2502 162.656 30.5469C161.75 29.8754 160.727 29.5131 159.64 29.5131C154.002 29.5131 153.491 35.4599 156.528 37.3463C156.869 37.5701 159.853 39.0622 160.908 39.7123C161.963 40.3624 162.294 41.5454 161.835 42.4832C161.42 43.3358 160.343 43.9326 159.256 43.8687C158.084 43.8047 157.167 43.1653 156.848 42.1741C156.794 41.993 156.762 41.6519 156.762 41.5027C156.762 41.4601 156.72 41.4175 156.677 41.4175H154.365C154.365 41.4175 154.279 41.4601 154.279 41.5027C154.279 43.1759 154.695 44.1031 155.835 44.9451C156.901 45.7444 158.063 46.0748 159.267 46.0748C162.422 46.0748 164.052 44.295 164.393 42.4406C164.681 40.6288 164.148 38.9982 162.528 37.9218L162.518 37.9112Z" fill="#161616"/>
<path d="M62.1238 29.8217H59.9816C59.9816 29.8217 59.907 29.8537 59.8964 29.875L57.9993 36.1203C57.9674 36.2055 57.8608 36.2055 57.8288 36.1203L55.9318 29.875C55.9318 29.875 55.8892 29.8217 55.8465 29.8217H52.3189C52.3189 29.8217 52.2336 29.8644 52.2336 29.907V45.8399C52.2336 45.8399 52.2763 45.9252 52.3189 45.9252H54.6316C54.6316 45.9252 54.7168 45.8825 54.7168 45.8399V33.733C54.7168 33.6371 54.8554 33.6264 54.8873 33.701L56.795 39.9889L56.9336 40.4259C56.9336 40.4259 56.9762 40.4792 57.0188 40.4792H58.788C58.788 40.4792 58.8519 40.4472 58.8732 40.4259L59.0118 39.9889L60.9195 33.701C60.9514 33.6051 61.09 33.6371 61.09 33.733V45.8399C61.09 45.8399 61.1326 45.9252 61.1753 45.9252H63.4879C63.4879 45.9252 63.5732 45.8825 63.5732 45.8399V29.907C63.5732 29.907 63.5305 29.8217 63.4879 29.8217H62.1344H62.1238Z" fill="#161616"/>
<path d="M127.113 29.8217C127.113 29.8217 127.039 29.8537 127.028 29.875L125.131 36.1203C125.099 36.2055 124.993 36.2055 124.961 36.1203L123.064 29.875C123.064 29.875 123.021 29.8217 122.978 29.8217H119.461C119.461 29.8217 119.376 29.8644 119.376 29.907V45.8399C119.376 45.8399 119.419 45.9252 119.461 45.9252H121.774C121.774 45.9252 121.859 45.8825 121.859 45.8399V33.733C121.859 33.6371 121.998 33.6264 122.03 33.701L123.937 39.9889L124.076 40.4259C124.076 40.4259 124.119 40.4792 124.161 40.4792H125.93C125.93 40.4792 126.005 40.4472 126.016 40.4259L126.154 39.9889L128.062 33.701C128.094 33.6051 128.232 33.6371 128.232 33.733V45.8399C128.232 45.8399 128.275 45.9252 128.318 45.9252H130.63C130.63 45.9252 130.716 45.8825 130.716 45.8399V29.907C130.716 29.907 130.673 29.8217 130.63 29.8217H127.113Z" fill="#161616"/>
<path d="M97.2936 29.8217H86.3697C86.3697 29.8217 86.2844 29.8644 86.2844 29.907V31.8999C86.2844 31.8999 86.3271 31.9852 86.3697 31.9852H90.59V45.8505C90.59 45.8505 90.6327 45.9358 90.6753 45.9358H92.988C92.988 45.9358 93.0732 45.8932 93.0732 45.8505V31.9852H97.2936C97.2936 31.9852 97.3788 31.9426 97.3788 31.8999V29.907C97.3788 29.907 97.3469 29.8217 97.2936 29.8217Z" fill="#161616"/>
<path d="M110.935 45.926H113.034C113.088 45.926 113.13 45.8727 113.12 45.8194L108.771 29.8225C108.771 29.8225 108.729 29.7692 108.686 29.7692H105.67C105.67 29.7692 105.596 29.8012 105.585 29.8225L101.237 45.8194C101.226 45.8727 101.269 45.926 101.322 45.926H103.421C103.421 45.926 103.485 45.894 103.507 45.8727L104.764 41.2154C104.764 41.2154 104.807 41.1621 104.85 41.1621H109.507C109.507 41.1621 109.581 41.194 109.592 41.2154L110.85 45.8727C110.85 45.8727 110.903 45.926 110.935 45.926ZM105.414 38.8814L107.098 32.6574C107.13 32.5722 107.237 32.5722 107.269 32.6574L108.953 38.8814C108.963 38.9347 108.921 38.9879 108.867 38.9879H105.489C105.436 38.9879 105.393 38.9347 105.404 38.8814H105.414Z" fill="#161616"/>
<path d="M146.819 45.926H148.918C148.972 45.926 149.014 45.8727 149.004 45.8194L144.655 29.8225C144.655 29.8225 144.613 29.7692 144.57 29.7692H141.554C141.554 29.7692 141.479 29.8012 141.469 29.8225L137.121 45.8194C137.11 45.8727 137.153 45.926 137.206 45.926H139.305C139.305 45.926 139.38 45.894 139.391 45.8727L140.648 41.2154C140.648 41.2154 140.691 41.1621 140.733 41.1621H145.391C145.391 41.1621 145.465 41.194 145.476 41.2154L146.734 45.8727C146.734 45.8727 146.776 45.926 146.819 45.926ZM141.298 38.8814L142.993 32.6574C143.025 32.5722 143.131 32.5722 143.163 32.6574L144.858 38.8814C144.869 38.9347 144.826 38.9879 144.773 38.9879H141.394C141.341 38.9879 141.298 38.9347 141.309 38.8814H141.298Z" fill="#161616"/>
<path d="M72.9519 43.5595V38.6144C72.9519 38.6144 72.9946 38.5292 73.0372 38.5292H79.1972C79.1972 38.5292 79.2825 38.4865 79.2825 38.4439V36.451C79.2825 36.451 79.2398 36.3657 79.1972 36.3657H73.0372C73.0372 36.3657 72.9519 36.3231 72.9519 36.2804V32.0601C72.9519 32.0601 72.9946 31.9748 73.0372 31.9748H80.0391C80.0391 31.9748 80.1244 31.9322 80.1244 31.8896V29.8966C80.1244 29.8966 80.0818 29.8114 80.0391 29.8114H70.554C70.554 29.8114 70.4688 29.854 70.4688 29.8966V45.8189C70.4688 45.8189 70.5114 45.9041 70.554 45.9041H80.3269C80.3269 45.9041 80.4122 45.8615 80.4122 45.8189V43.7193C80.4122 43.7193 80.3695 43.6341 80.3269 43.6341H73.0159C73.0159 43.6341 72.9519 43.5915 72.9519 43.5382V43.5595Z" fill="#161616"/>
<path d="M183.651 45.7869L175.647 37.538C175.647 37.538 175.615 37.4527 175.647 37.4314L182.852 29.9712C182.905 29.9179 182.862 29.8326 182.798 29.8326H179.846C179.846 29.8326 179.804 29.8433 179.793 29.8646L173.686 36.1845C173.633 36.2378 173.548 36.1951 173.548 36.1312V29.9179C173.548 29.9179 173.505 29.8326 173.462 29.8326H171.15C171.15 29.8326 171.064 29.8753 171.064 29.9179V45.8508C171.064 45.8508 171.107 45.9361 171.15 45.9361H173.462C173.462 45.9361 173.548 45.8934 173.548 45.8508V38.8382C173.548 38.7742 173.644 38.7316 173.686 38.7849L180.603 45.9147C180.603 45.9147 180.646 45.9467 180.656 45.9467H183.608C183.662 45.9361 183.704 45.8401 183.651 45.7975V45.7869Z" fill="#161616"/>
<path d="M36.4392 21.243L22.4459 31.602L25.0463 25.4953L36.4392 21.243Z" fill="#E17726" stroke="#E17726" stroke-width="0.581081" stroke-linecap="round" stroke-linejoin="round"/>
<path d="M4.15808 21.243L18.0341 31.6979L15.5509 25.4953L4.15808 21.243Z" fill="#E27625" stroke="#E27625" stroke-width="0.581081" stroke-linecap="round" stroke-linejoin="round"/>
<path d="M31.3985 45.2648L27.6791 50.9559L35.6509 53.1513L37.9316 45.3927L31.3985 45.2648Z" fill="#E27625" stroke="#E27625" stroke-width="0.581081" stroke-linecap="round" stroke-linejoin="round"/>
<path d="M2.67664 45.3927L4.94667 53.1513L12.9078 50.9559L9.199 45.2648L2.67664 45.3927Z" fill="#E27625" stroke="#E27625" stroke-width="0.581081" stroke-linecap="round" stroke-linejoin="round"/>
<path d="M12.4815 35.6517L10.2648 38.9981L18.1513 39.3605L17.8849 30.8665L12.4709 35.6623L12.4815 35.6517Z" fill="#E27625" stroke="#E27625" stroke-width="0.581081" stroke-linecap="round" stroke-linejoin="round"/>
<path d="M28.1263 35.6515L22.6271 30.7597L22.4459 39.3496L30.3324 38.9872L28.1157 35.6408L28.1263 35.6515Z" fill="#E27625" stroke="#E27625" stroke-width="0.581081" stroke-linecap="round" stroke-linejoin="round"/>
<path d="M12.9077 50.9558L17.6823 48.6538L13.5685 45.4459L12.9077 50.9558Z" fill="#E27625" stroke="#E27625" stroke-width="0.581081" stroke-linecap="round" stroke-linejoin="round"/>
<path d="M22.915 48.6434L27.6789 50.9454L27.0288 45.4355L22.915 48.6434Z" fill="#E27625" stroke="#E27625" stroke-width="0.581081" stroke-linecap="round" stroke-linejoin="round"/>
<path d="M27.6789 50.9559L22.915 48.6539L23.2987 51.7446L23.2561 53.0554L27.6683 50.9559H27.6789Z" fill="#D5BFB2" stroke="#D5BFB2" stroke-width="0.581081" stroke-linecap="round" stroke-linejoin="round"/>
<path d="M12.9077 50.9559L17.3412 53.0554L17.3092 51.7446L17.6823 48.6539L12.9077 50.9559Z" fill="#D5BFB2" stroke="#D5BFB2" stroke-width="0.581081" stroke-linecap="round" stroke-linejoin="round"/>
<path d="M17.4159 43.3997L13.4513 42.2381L16.2435 40.9485L17.4052 43.3891L17.4159 43.3997Z" fill="#233447" stroke="#233447" stroke-width="0.581081" stroke-linecap="round" stroke-linejoin="round"/>
<path d="M23.1818 43.4L24.3434 40.9595L27.157 42.249L23.1818 43.4107V43.4Z" fill="#233447" stroke="#233447" stroke-width="0.581081" stroke-linecap="round" stroke-linejoin="round"/>
<path d="M12.9076 50.9559L13.6004 45.2648L9.19885 45.3927L12.9076 50.9559Z" fill="#CC6228" stroke="#CC6228" stroke-width="0.581081" stroke-linecap="round" stroke-linejoin="round"/>
<path d="M26.9971 45.2648L27.6791 50.9559L31.3986 45.3927L26.9971 45.2648Z" fill="#CC6228" stroke="#CC6228" stroke-width="0.581081" stroke-linecap="round" stroke-linejoin="round"/>
<path d="M30.3324 38.9982L22.4459 39.3605L23.1813 43.4104L24.3429 40.9698L27.1565 42.2594L30.3431 39.0088L30.3324 38.9982Z" fill="#CC6228" stroke="#CC6228" stroke-width="0.581081" stroke-linecap="round" stroke-linejoin="round"/>
<path d="M13.462 42.238L16.2543 40.9484L17.4159 43.389L18.1513 39.3391L10.2648 38.9768L13.462 42.2273V42.238Z" fill="#CC6228" stroke="#CC6228" stroke-width="0.581081" stroke-linecap="round" stroke-linejoin="round"/>
<path d="M10.2648 38.9983L13.5686 45.4461L13.462 42.2382L10.2648 38.9877V38.9983Z" fill="#E27525" stroke="#E27525" stroke-width="0.581081" stroke-linecap="round" stroke-linejoin="round"/>
<path d="M27.1567 42.2381L27.0288 45.4459L30.3326 38.9982L27.146 42.2487L27.1567 42.2381Z" fill="#E27525" stroke="#E27525" stroke-width="0.581081" stroke-linecap="round" stroke-linejoin="round"/>
<path d="M18.1514 39.35L17.416 43.3998L18.3432 48.1744L18.5457 41.8758L18.1407 39.35H18.1514Z" fill="#E27525" stroke="#E27525" stroke-width="0.581081" stroke-linecap="round" stroke-linejoin="round"/>
<path d="M22.4459 39.35L22.0623 41.8651L22.2541 48.1744L23.1813 43.3998L22.4459 39.35Z" fill="#E27525" stroke="#E27525" stroke-width="0.581081" stroke-linecap="round" stroke-linejoin="round"/>
<path d="M23.1817 43.3998L22.2545 48.1743L22.9153 48.6433L27.0291 45.4354L27.1569 42.2275L23.1817 43.3891V43.3998Z" fill="#F5841F" stroke="#F5841F" stroke-width="0.581081" stroke-linecap="round" stroke-linejoin="round"/>
<path d="M13.462 42.2379L13.5685 45.4458L17.6823 48.6537L18.3431 48.1847L17.4159 43.4102L13.4513 42.2485L13.462 42.2379Z" fill="#F5841F" stroke="#F5841F" stroke-width="0.581081" stroke-linecap="round" stroke-linejoin="round"/>
<path d="M23.2666 53.0552L23.3092 51.7443L22.9469 51.4353H17.6608L17.3197 51.7443L17.3517 53.0552L12.9182 50.9557L14.4742 52.2239L17.6182 54.3874H23.0002L26.1548 52.2239L27.6895 50.9557L23.2773 53.0552H23.2666Z" fill="#C0AC9D" stroke="#C0AC9D" stroke-width="0.581081" stroke-linecap="round" stroke-linejoin="round"/>
<path d="M22.9152 48.6429L22.2545 48.1739H18.3538L17.6931 48.6429L17.3201 51.7335L17.6611 51.4245H22.9472L23.3096 51.7335L22.9259 48.6429H22.9152Z" fill="#161616" stroke="#161616" stroke-width="0.581081" stroke-linecap="round" stroke-linejoin="round"/>
<path d="M37.0362 32.2838L38.2085 26.5714L36.4394 21.2534L22.915 31.2607L28.1159 35.6516L35.4695 37.7937L37.0895 35.8967L36.3861 35.3852L37.5051 34.362L36.6418 33.7013L37.7609 32.8487L37.0255 32.2838H37.0362Z" fill="#763E1A" stroke="#763E1A" stroke-width="0.581081" stroke-linecap="round" stroke-linejoin="round"/>
<path d="M2.37817 26.561L3.57181 32.2734L2.81513 32.8383L3.95548 33.6909L3.09222 34.3516L4.21126 35.3748L3.50786 35.8863L5.1278 37.7833L12.4814 35.6412L17.6823 31.2503L4.15797 21.243L2.37817 26.561Z" fill="#763E1A" stroke="#763E1A" stroke-width="0.581081" stroke-linecap="round" stroke-linejoin="round"/>
<path d="M35.4695 37.7938L28.1159 35.6517L30.3326 38.9981L27.0288 45.4459L31.409 45.3926H37.942L35.4802 37.7938H35.4695Z" fill="#F5841F" stroke="#F5841F" stroke-width="0.581081" stroke-linecap="round" stroke-linejoin="round"/>
<path d="M12.4815 35.6517L5.12785 37.7938L2.67664 45.3926H9.199L13.5792 45.4459L10.2754 38.9981L12.4922 35.6517H12.4815Z" fill="#F5841F" stroke="#F5841F" stroke-width="0.581081" stroke-linecap="round" stroke-linejoin="round"/>
<path d="M22.4464 39.3502L22.9153 31.2611L25.0468 25.5061H15.551L17.6825 31.2611L18.1514 39.3502L18.3326 41.8866V48.1745H22.2546V41.8866L22.4464 39.3502Z" fill="#F5841F" stroke="#F5841F" stroke-width="0.581081" stroke-linecap="round" stroke-linejoin="round"/>
</svg>
