<svg width="187" height="75" viewBox="0 0 187 75" fill="none" xmlns="http://www.w3.org/2000/svg">
<path d="M70.6058 27.3566H69.6708C68.7585 27.3566 68.3581 27.6235 67.7568 28.6252L62.7716 36.7037L60.702 28.7146C60.4571 27.7576 60.1902 27.3793 59.1444 27.3793H58.3656C57.3418 27.3793 56.6965 27.9799 56.4963 29.0483L54.1819 42.0447C54.0037 43.0237 54.4488 43.5356 55.2944 43.5356H55.6507C56.541 43.5356 56.9414 43.0904 57.0969 42.1334L58.9662 31.6297L60.7688 38.6618C60.9243 39.3739 61.0578 39.841 62.4158 39.841C63.551 39.841 63.818 39.4406 64.2184 38.7952L68.6244 31.5623L66.7551 42.066C66.5769 43.0677 67.022 43.5569 67.8455 43.5569H68.2239C69.1142 43.5569 69.5146 43.0898 69.6701 42.1548L71.9625 29.0697C72.1627 28.0239 71.6509 27.3559 70.6051 27.3559L70.6058 27.3566Z" fill="black"/>
<path d="M84.5143 36.6588C84.4029 33.4988 82.2666 31.1843 78.6615 31.1843C74.5445 31.1843 72.0299 34.5445 72.1413 38.2164C72.2748 41.5766 74.5892 43.7355 77.9941 43.7355C82.2226 43.7135 84.6258 40.3306 84.5143 36.6588ZM78.0162 41.4211C76.0801 41.4211 74.8562 40.019 74.7894 38.105C74.7007 35.635 76.325 33.4541 78.6395 33.4541C80.42 33.4541 81.8215 34.8562 81.8889 36.7922C81.9556 39.3956 80.3312 41.4211 78.0168 41.4211H78.0162Z" fill="black"/>
<path d="M93.7052 31.184C91.9914 31.184 90.634 32.0295 89.7217 33.4537C89.8105 31.8293 88.9209 31.3615 88.0079 31.3615C87.5848 31.3615 87.2511 31.4729 87.2291 31.517L85.3598 42.0874C85.1816 43.1779 85.7829 43.4896 86.5838 43.4896H86.9174C87.7857 43.4896 88.1414 43.1332 88.3196 42.0874L89.4321 35.7448C90.2336 34.3426 91.1232 33.6753 92.5033 33.6753C93.8834 33.6753 94.7063 34.4988 94.729 35.8562C94.751 36.2126 94.6622 36.6571 94.5955 37.1916L93.7279 42.0874C93.5497 43.1779 94.173 43.4896 94.9519 43.4896H95.2856C96.1531 43.4896 96.5095 43.1332 96.6877 42.0874L97.6447 36.6798C97.7561 36.0791 97.8229 35.5446 97.8002 35.0554C97.7335 32.7857 96.2199 31.1833 93.7052 31.1833V31.184Z" fill="black"/>
<path d="M146.359 31.1835C144.956 31.1835 143.911 31.9844 143.199 33.4532C143.31 31.8289 142.42 31.3611 141.508 31.3611C141.062 31.3611 140.751 31.4725 140.729 31.5166L138.837 42.087C138.659 43.1775 139.371 43.4891 140.173 43.4891H140.506C141.263 43.4891 141.619 43.1328 141.82 42.087L142.443 38.5486C142.91 35.7891 143.934 33.875 145.581 33.875C146.383 33.875 146.894 34.2087 147.228 34.5871C147.273 34.6318 148.519 34.142 148.474 32.6731C148.407 31.7608 147.495 31.1822 146.36 31.1822L146.359 31.1835Z" fill="black"/>
<path d="M160.734 31.3619C159.577 31.3619 158.932 31.9185 158.553 33.3867C157.819 32.0072 156.306 31.161 154.548 31.161C150.809 31.161 148.206 34.4992 148.206 38.2825C148.206 41.3978 150.12 43.7122 153.146 43.7122C154.994 43.7122 156.418 42.9554 157.33 41.4198C157.197 43.0222 157.508 43.512 158.665 43.512C159.689 43.512 160.023 43.1336 160.134 41.9984C160.268 39.9062 160.98 36.502 161.803 31.717C161.803 31.6282 161.336 31.3606 160.735 31.3606L160.734 31.3619ZM153.791 41.4205C151.966 41.4205 150.92 40.2633 150.92 38.2158C150.92 35.8126 152.322 33.4087 154.926 33.4087C157.04 33.4087 157.93 34.9664 157.93 36.6802C157.93 38.8391 156.461 41.4205 153.791 41.4205Z" fill="black"/>
<path d="M178.494 31.1833C176.446 31.1833 175.089 32.2291 174.132 33.7647C173.665 32.1403 172.262 31.1833 170.482 31.1833C168.924 31.1833 167.567 31.9174 166.632 33.3196C166.677 31.8286 165.808 31.3835 164.918 31.3835C164.473 31.3835 164.161 31.495 164.139 31.539L162.27 42.1095C162.092 43.1999 162.693 43.5116 163.494 43.5116H163.828C164.584 43.5116 165.052 43.1999 165.23 42.1095L166.387 35.5446C167.233 34.2318 168.034 33.6753 169.28 33.6753C170.526 33.6753 171.261 34.5876 171.261 35.9677C171.261 36.1899 171.239 36.4348 171.194 36.7018L170.26 42.1095C170.082 43.1999 170.705 43.5116 171.484 43.5116H171.795C172.552 43.5116 173.041 43.1779 173.219 42.1095L174.377 35.5446C175.222 34.2318 176.024 33.6753 177.27 33.6753C178.449 33.6753 179.317 34.3874 179.317 35.8562C179.317 36.2126 179.25 36.6571 179.162 37.1916L178.293 42.0874C178.115 43.1779 178.717 43.4896 179.517 43.4896H179.851C180.719 43.4896 181.075 43.1332 181.253 42.0874L182.21 36.6798C182.322 36.0791 182.366 35.5446 182.366 35.0554C182.388 32.6742 180.785 31.1833 178.494 31.1833Z" fill="black"/>
<path d="M111.308 36.4803C111.308 34.8332 110.975 33.7428 110.24 32.7864C109.439 31.7627 107.948 31.1394 106.212 31.1394C100.96 31.1394 99.0687 35.0114 99.0687 38.3716C99.0687 41.7318 101.383 43.7126 104.944 43.7126C108.504 43.7126 110.507 42.1323 110.507 40.8642C110.507 40.0187 109.906 39.7291 109.216 39.6623C108.281 40.8642 106.99 41.4428 105.233 41.4428C103.675 41.4428 101.828 40.8422 101.694 38.06H109.773C110.64 38.082 111.308 37.5928 111.308 36.4797V36.4803ZM108.705 36.1019H101.962C102.607 34.3881 104.098 33.3203 105.99 33.3203C106.947 33.3203 107.681 33.5873 108.171 34.1212C108.594 34.611 108.75 35.2784 108.705 36.1019Z" fill="black"/>
<path d="M136.389 34.856H131.582C131.003 34.856 130.736 34.9894 130.558 35.1676C130.269 35.4793 130.113 36.1913 130.113 36.503C130.135 36.9928 130.558 37.2818 131.337 37.2818H134.742C134.275 39.663 132.761 41.31 130.158 41.31C127.421 41.31 125.595 39.5742 125.485 36.6145C125.351 32.8979 127.821 29.8267 131.315 29.8267C133.363 29.8267 134.965 30.9171 135.611 32.3633C135.7 32.4748 137.591 32.4748 137.525 30.8498C137.503 30.2712 137.169 29.5811 136.546 29.0025C135.544 28.0008 133.653 27.1332 131.138 27.1332C127.622 27.1332 124.84 29.0692 123.394 31.8735C123.394 31.8515 123.372 31.8515 123.372 31.8515C123.083 31.4731 122.615 31.2949 122.148 31.2949C121.369 31.2949 120.857 31.5398 120.1 32.8752L116.362 39.4401L114.96 32.8972C114.693 31.6733 114.247 31.2949 113.469 31.2949C112.556 31.2949 111.822 31.9623 111.844 32.1184L114.514 42.6889L111.755 47.229C111.466 47.7188 111.443 48.3641 112.489 48.3641H113.068C114.158 48.3641 114.514 47.6968 115.048 46.7838L122.57 34.0545C122.348 34.9447 122.237 35.9017 122.281 36.8808C122.415 41.1532 125.308 43.7346 129.536 43.7346C131.539 43.7346 133.141 42.9778 134.032 41.8206C133.965 43.0666 134.632 43.5564 135.522 43.5564C136.012 43.5564 136.368 43.4009 136.368 43.3115L137.592 36.4577C137.792 35.3892 137.392 34.8553 136.39 34.8553L136.389 34.856Z" fill="black"/>
<path d="M42.7595 49.3813C49.6512 42.4896 49.6512 31.316 42.7595 24.4244C35.8679 17.5327 24.6943 17.5327 17.8026 24.4244C10.911 31.316 10.911 42.4896 17.8026 49.3813C24.6943 56.273 35.8679 56.273 42.7595 49.3813Z" fill="white"/>
<path d="M47.9291 36.9029C47.9291 46.6505 40.0288 54.5501 30.2819 54.5501C20.535 54.5501 12.6341 46.6505 12.6341 36.9029C12.6341 34.2101 13.2347 31.6734 14.3031 29.403C13.5911 31.2056 13.2574 33.0082 13.2574 34.6772C13.2574 42.6663 19.7108 43.8235 22.4484 43.8015C26.6321 43.7568 31.5059 41.7093 35.6229 37.9267C35.6229 37.9267 35.089 40.9085 34.9328 41.8214C34.7773 42.7117 35.3553 43.4905 36.2455 43.4905H36.6019C37.5142 43.4905 38.1816 42.7337 38.3377 41.8214L39.8286 33.4987C40.0068 32.5643 39.4055 31.8296 38.4712 31.8296H30.1484C29.2135 31.8296 28.3679 32.3194 28.2124 33.2537C28.2124 33.2984 28.1457 33.5654 28.1457 33.6321C28.0122 34.5224 28.6355 35.1898 29.5251 35.1898H33.865C33.7983 35.2565 33.7315 35.3232 33.6648 35.39C30.6603 38.2163 26.9437 39.7739 23.8732 39.7739C20.8026 39.7739 17.397 37.8379 17.397 33.498C17.3964 24.4852 25.8526 19.2557 30.2813 19.2557C40.0061 19.2557 47.9285 27.156 47.9285 36.9029H47.9291Z" fill="#DF2127"/>
</svg>
