<svg width="186" height="75" viewBox="0 0 186 75" fill="none" xmlns="http://www.w3.org/2000/svg">
<path d="M63.6584 45.6825C61.8438 45.6825 60.1501 45.2792 58.6177 44.4727C57.1257 43.6662 55.9159 42.5371 54.9885 41.0451C54.1013 39.553 53.6577 37.8997 53.6577 36.085C53.6577 34.2704 54.1013 32.6171 54.9885 31.1653C55.8756 29.7136 57.0854 28.5845 58.6177 27.7377C60.1501 26.9312 61.8034 26.5279 63.6584 26.5279C65.5134 26.5279 67.1667 26.9312 68.6588 27.7377C70.1911 28.5442 71.4009 29.6733 72.2477 31.1653C73.1349 32.6171 73.5785 34.2704 73.5785 36.085C73.5785 37.8997 73.1349 39.553 72.2477 41.0451C71.3606 42.4968 70.1508 43.6259 68.6588 44.4727C67.1667 45.2792 65.4731 45.6825 63.6584 45.6825ZM63.6584 41.529C65.1908 41.529 66.4409 41.0451 67.3683 40.0369C68.2958 39.0288 68.7797 37.7384 68.7797 36.085C68.7797 34.4317 68.2958 33.101 67.3683 32.1332C66.4409 31.125 65.2311 30.6411 63.6584 30.6411C62.0857 30.6411 60.8356 31.125 59.9081 32.0928C58.9807 33.0606 58.5371 34.3914 58.5371 36.0447C58.5371 37.6981 58.9807 39.0288 59.9081 39.9966C60.8356 41.0451 62.0857 41.529 63.6584 41.529Z" fill="#04111D"/>
<path d="M80.9174 32.738C81.361 32.0525 82.0062 31.4879 82.8127 31.0443C83.6192 30.6008 84.587 30.3991 85.6758 30.3991C86.9662 30.3991 88.0953 30.7217 89.1438 31.3266C90.1923 31.9315 90.9988 32.8186 91.5633 33.9881C92.1682 35.1575 92.4908 36.4883 92.4908 38.0206C92.4908 39.553 92.1682 40.8837 91.5633 42.0532C90.9584 43.2226 90.1519 44.1098 89.1438 44.755C88.0953 45.3598 86.9662 45.6825 85.6758 45.6825C84.6273 45.6825 83.6595 45.4808 82.8127 45.0372C82.0062 44.5937 81.361 44.0694 80.9174 43.3839V49.8763H76.1993V30.6008H80.9174V32.738ZM87.6518 38.0206C87.6518 36.8915 87.3291 36.0044 86.6436 35.3591C85.9984 34.7139 85.1919 34.3913 84.2241 34.3913C83.2563 34.3913 82.4901 34.7139 81.8046 35.3591C81.1594 36.0044 80.8368 36.9318 80.8368 38.061C80.8368 39.1901 81.1594 40.0772 81.8046 40.7628C82.4498 41.408 83.2563 41.7306 84.2241 41.7306C85.1919 41.7306 85.9581 41.408 86.6436 40.7628C87.3291 40.0772 87.6518 39.1901 87.6518 38.0206Z" fill="#04111D"/>
<path d="M109.468 37.8194C109.468 38.263 109.428 38.7065 109.387 39.1501H98.701C98.7817 40.0776 99.0639 40.8035 99.6285 41.2874C100.193 41.7713 100.838 42.0132 101.645 42.0132C102.814 42.0132 103.661 41.5293 104.105 40.5615H109.145C108.903 41.5293 108.419 42.4165 107.734 43.1826C107.089 43.9488 106.242 44.594 105.234 45.0376C104.226 45.4812 103.096 45.7231 101.846 45.7231C100.354 45.7231 98.9833 45.4005 97.8139 44.7957C96.6444 44.1908 95.7169 43.3036 95.0717 42.1342C94.4265 40.9648 94.0636 39.634 94.0636 38.1016C94.0636 36.5693 94.3862 35.1982 95.0314 34.0691C95.6766 32.8997 96.6041 32.0125 97.7735 31.4076C98.943 30.8028 100.314 30.4801 101.846 30.4801C103.379 30.4801 104.669 30.7624 105.839 31.3673C107.008 31.9722 107.895 32.819 108.54 33.9481C109.145 35.0369 109.468 36.3273 109.468 37.8194ZM104.629 36.6096C104.629 35.8434 104.347 35.1982 103.782 34.7546C103.217 34.3111 102.532 34.0691 101.725 34.0691C100.919 34.0691 100.274 34.3111 99.7092 34.7546C99.1849 35.1982 98.8623 35.8434 98.701 36.6499H104.629V36.6096Z" fill="#04111D"/>
<path d="M121.364 30.4801C123.179 30.4801 124.59 31.0447 125.679 32.1738C126.768 33.3029 127.292 34.8353 127.292 36.8112V45.4812H122.614V37.4161C122.614 36.408 122.332 35.6418 121.808 35.1176C121.283 34.553 120.558 34.3111 119.67 34.3111C118.783 34.3111 118.057 34.5933 117.533 35.1176C117.009 35.6821 116.727 36.4483 116.727 37.4161V45.4812H111.968V30.6011H116.686V32.5771C117.17 31.9319 117.815 31.4076 118.622 31.0447C119.428 30.6818 120.356 30.4801 121.364 30.4801Z" fill="#04111D"/>
<path d="M137.575 45.6825C136.163 45.6825 134.873 45.4405 133.744 44.997C132.615 44.5534 131.728 43.9082 131.042 43.021C130.397 42.1339 130.034 41.0854 129.994 39.8756H135.034C135.115 40.5612 135.357 41.0854 135.801 41.4886C136.204 41.8516 136.768 42.0129 137.454 42.0129C138.139 42.0129 138.704 41.8516 139.107 41.5693C139.51 41.2467 139.712 40.8031 139.712 40.2789C139.712 39.8353 139.551 39.4321 139.228 39.1498C138.906 38.8675 138.502 38.5852 138.059 38.4239C137.615 38.2223 136.93 38.0207 136.083 37.7384C134.833 37.3755 133.825 37.0125 133.018 36.6093C132.212 36.2463 131.526 35.6818 130.961 34.9559C130.397 34.2301 130.115 33.2623 130.115 32.0928C130.115 30.3588 130.76 28.9878 132.091 28.02C133.381 27.0118 135.115 26.5279 137.212 26.5279C139.309 26.5279 141.083 27.0118 142.374 28.02C143.664 28.9878 144.39 30.3588 144.47 32.1332H139.349C139.309 31.5283 139.067 31.0444 138.664 30.7218C138.26 30.3588 137.696 30.1975 137.051 30.1975C136.486 30.1975 136.002 30.3588 135.68 30.6411C135.317 30.9234 135.155 31.3266 135.155 31.8912C135.155 32.4961 135.438 32.98 136.042 33.3026C136.647 33.6252 137.534 33.9881 138.785 34.3914C140.035 34.7946 141.043 35.1979 141.809 35.5608C142.615 35.9237 143.301 36.4883 143.866 37.1738C144.43 37.8997 144.712 38.7868 144.712 39.916C144.712 40.9644 144.43 41.9322 143.866 42.8194C143.301 43.7065 142.495 44.3921 141.446 44.9163C140.317 45.4405 139.067 45.6825 137.575 45.6825Z" fill="#04111D"/>
<path d="M162.093 37.8194C162.093 38.263 162.052 38.7065 162.012 39.1501H151.326C151.406 40.0776 151.689 40.8035 152.253 41.2874C152.818 41.7713 153.463 42.0132 154.269 42.0132C155.439 42.0132 156.286 41.5293 156.729 40.5615H161.77C161.528 41.5293 161.044 42.4165 160.359 43.1826C159.713 43.9488 158.866 44.594 157.858 45.0376C156.85 45.4812 155.721 45.7231 154.471 45.7231C152.979 45.7231 151.608 45.4005 150.438 44.7957C149.269 44.1908 148.342 43.3036 147.696 42.1342C147.051 40.9648 146.688 39.634 146.688 38.1016C146.688 36.5693 147.011 35.1982 147.656 34.0691C148.301 32.8997 149.229 32.0125 150.398 31.4076C151.568 30.8028 152.939 30.4801 154.471 30.4801C156.003 30.4801 157.294 30.7624 158.463 31.3673C159.633 31.9722 160.52 32.819 161.165 33.9481C161.77 35.0369 162.093 36.3273 162.093 37.8194ZM157.253 36.6096C157.253 35.8434 156.971 35.1982 156.407 34.7546C155.842 34.3111 155.157 34.0691 154.35 34.0691C153.544 34.0691 152.898 34.3111 152.334 34.7546C151.81 35.1982 151.487 35.8434 151.326 36.6499H157.253V36.6096Z" fill="#04111D"/>
<path d="M163.666 38.0206C163.666 36.4883 163.948 35.1575 164.553 33.9881C165.158 32.8186 165.964 31.9315 167.013 31.3266C168.061 30.7217 169.19 30.3991 170.481 30.3991C171.569 30.3991 172.497 30.6008 173.344 31.0443C174.19 31.4879 174.795 32.0121 175.239 32.738V30.6411H179.957V45.5211H175.239V43.4242C174.795 44.1098 174.15 44.6743 173.303 45.1179C172.497 45.5615 171.529 45.7631 170.44 45.7631C169.19 45.7631 168.061 45.4405 167.013 44.8356C165.964 44.1904 165.158 43.3033 164.553 42.1338C163.948 40.9241 163.666 39.553 163.666 38.0206ZM175.199 38.0609C175.199 36.9318 174.876 36.0447 174.19 35.3591C173.545 34.7139 172.739 34.3913 171.811 34.3913C170.884 34.3913 170.077 34.7139 169.392 35.3591C168.747 36.0044 168.424 36.8915 168.424 38.0206C168.424 39.1497 168.747 40.0772 169.392 40.7224C170.037 41.3676 170.843 41.6902 171.811 41.6902C172.779 41.6902 173.545 41.3676 174.19 40.7224C174.876 40.1175 175.199 39.1901 175.199 38.0609Z" fill="#04111D"/>
<path d="M45.0279 38.2225C45.0279 49.3523 35.995 58.3852 24.8652 58.3852C13.7354 58.3852 4.70251 49.3523 4.70251 38.2225C4.70251 27.0927 13.7354 18.0598 24.8652 18.0598C35.995 18.0598 45.0279 27.0927 45.0279 38.2225Z" fill="#2081E2"/>
<path d="M14.6628 38.9078L14.7435 38.7868L19.9858 30.6008C20.0664 30.4798 20.2277 30.4798 20.3084 30.6411C21.1956 32.6171 21.9214 35.0366 21.5988 36.5689C21.4375 37.2142 21.0342 38.061 20.5503 38.8272C20.51 38.9481 20.4294 39.0691 20.3487 39.1498C20.3084 39.1901 20.2681 39.2304 20.1874 39.2304H14.7838C14.6628 39.1901 14.5822 39.0288 14.6628 38.9078Z" fill="white"/>
<path d="M38.0113 40.4406V41.7311C38.0113 41.8117 37.9709 41.852 37.8903 41.8924C37.487 42.0537 36.0756 42.6989 35.5111 43.5054C34.019 45.562 32.8899 48.5057 30.3898 48.5057H19.8648C16.1549 48.5057 13.1305 45.4813 13.1305 41.7311V41.6101C13.1305 41.5294 13.2111 41.4488 13.2918 41.4488H19.2196C19.3406 41.4488 19.4213 41.5697 19.4213 41.6504C19.3809 42.0133 19.4616 42.4166 19.6229 42.7795C19.9858 43.5054 20.7117 43.9086 21.4778 43.9086H24.3813V41.6504H21.5182C21.3569 41.6504 21.2762 41.4891 21.3569 41.3681C21.3972 41.3278 21.4375 41.2875 21.4778 41.2068C21.7601 40.8036 22.1231 40.239 22.5263 39.5535C22.8086 39.1099 23.0505 38.5857 23.2522 38.1018C23.2925 38.0211 23.3328 37.9405 23.3731 37.8195C23.4135 37.6582 23.4941 37.4969 23.5344 37.3759C23.5748 37.2549 23.6151 37.134 23.6554 37.013C23.7361 36.6097 23.7764 36.1661 23.7764 35.6822C23.7764 35.5209 23.7764 35.3193 23.7361 35.1177C23.7361 34.9161 23.6957 34.7144 23.6957 34.5128C23.6957 34.3515 23.6554 34.1499 23.6151 33.9886C23.5748 33.7063 23.5344 33.4643 23.4538 33.1821L23.4135 33.1014C23.3731 32.9401 23.3328 32.7385 23.2522 32.5772C23.0909 32.0126 22.8892 31.4481 22.6876 30.9642C22.607 30.7625 22.5263 30.5609 22.4457 30.3593C22.3247 30.077 22.2037 29.7947 22.0827 29.5528C22.0424 29.4318 21.9618 29.3512 21.9214 29.2302C21.8811 29.1092 21.8005 28.9882 21.7601 28.8672L21.6392 28.6253L21.2762 27.9801C21.2359 27.8994 21.3165 27.7785 21.3972 27.8188L23.6151 28.4237L23.8974 28.5043L24.22 28.585L24.341 28.6253V27.2946C24.341 26.6494 24.8652 26.1251 25.4701 26.1251C25.7927 26.1251 26.0749 26.2461 26.2766 26.4477C26.4782 26.6494 26.5992 26.9316 26.5992 27.2542V29.1899L26.8411 29.2705C26.8411 29.2705 26.8815 29.2705 26.8815 29.3108C26.9218 29.3512 27.0024 29.4318 27.1234 29.5125C27.2041 29.5931 27.2847 29.6738 27.4057 29.7544C27.6073 29.9157 27.8896 30.1577 28.1719 30.3996C28.2525 30.4803 28.3332 30.5206 28.3735 30.6012C28.7364 30.9238 29.1397 31.3271 29.5429 31.7707C29.6639 31.8917 29.7446 32.0126 29.8655 32.1336C29.9865 32.2546 30.0672 32.4159 30.1881 32.5369C30.3091 32.6982 30.4704 32.8998 30.5914 33.0611C30.6317 33.1417 30.7124 33.2224 30.7527 33.3434C30.914 33.5853 31.035 33.8273 31.1963 34.0692C31.2366 34.1902 31.3172 34.3112 31.3576 34.4322C31.5189 34.7548 31.6399 35.0774 31.6802 35.4403C31.7205 35.5209 31.7205 35.6016 31.7205 35.6419C31.7608 35.7226 31.7608 35.8435 31.7608 35.9645C31.8012 36.3274 31.7608 36.6501 31.7205 37.013C31.6802 37.1743 31.6398 37.2953 31.5995 37.4566C31.5592 37.5775 31.5189 37.7388 31.4382 37.9001C31.3172 38.1824 31.1559 38.4647 30.9946 38.747C30.9543 38.8276 30.8737 38.9486 30.793 39.0696C30.7124 39.1905 30.6317 39.2712 30.5914 39.3922C30.5107 39.5132 30.3898 39.6341 30.3091 39.7551C30.2285 39.8761 30.1478 39.9971 30.0268 40.118C29.9059 40.2793 29.7446 40.4406 29.6236 40.6019C29.5429 40.6826 29.4623 40.8036 29.3413 40.8842C29.2607 40.9649 29.18 41.0858 29.059 41.1665C28.938 41.2875 28.8171 41.4084 28.6961 41.4891L28.4541 41.6907C28.4138 41.7311 28.3735 41.7311 28.3332 41.7311H26.5589V43.9893H28.7767C29.2607 43.9893 29.7446 43.828 30.1075 43.5054C30.2285 43.3844 30.793 42.9005 31.4785 42.1746C31.5054 42.1477 31.5323 42.1343 31.5592 42.1343L37.6887 40.36C37.9306 40.239 38.0113 40.3197 38.0113 40.4406Z" fill="white"/>
</svg>
