<svg width="187" height="75" viewBox="0 0 187 75" fill="none" xmlns="http://www.w3.org/2000/svg">
<path fill-rule="evenodd" clip-rule="evenodd" d="M90.5426 28.8015C92.2475 26.6887 94.8995 24.9401 98.0469 24.9401C105.143 24.9401 110.724 30.8124 110.724 38.0544C110.724 45.6024 105.114 51.1832 98.382 51.1832C94.7975 51.1832 92.058 49.3472 91.0526 47.8172H90.9506V58.906C90.9506 58.906 90.9215 59.0372 90.8777 59.0809C90.834 59.1246 90.7612 59.1538 90.7029 59.1538H84.3935C84.3935 59.1538 84.2623 59.1246 84.2186 59.0809C84.1749 59.0372 84.1458 58.9643 84.1458 58.906V25.2024C84.1458 25.2024 84.1749 25.0712 84.2186 25.0275C84.2623 24.9838 84.3352 24.9547 84.3935 24.9547H90.2949C90.2949 24.9547 90.426 24.9838 90.4697 25.0275C90.5135 25.0712 90.5426 25.1441 90.5426 25.2024V28.8161V28.8015ZM97.5077 44.7572C96.9832 44.7718 96.4586 44.7281 95.934 44.6261C94.6372 44.3492 93.4423 43.7081 92.5097 42.7464C91.5772 41.7992 90.9506 40.5898 90.7175 39.2784C90.6446 38.8995 90.6155 38.5206 90.6009 38.1418C90.6009 37.7192 90.63 37.2966 90.7029 36.8741C90.936 35.5627 91.5626 34.3532 92.4952 33.4061C93.4277 32.4589 94.608 31.8032 95.9195 31.5264C96.444 31.4098 96.9686 31.3661 97.4932 31.3807C98.3529 31.3807 99.198 31.5701 99.9849 31.9052C100.786 32.2404 101.5 32.7358 102.112 33.3624C102.724 33.9889 103.191 34.7175 103.511 35.5189C103.832 36.3204 103.992 37.1801 103.977 38.0544C103.977 38.9286 103.832 39.7884 103.511 40.5898C103.191 41.3912 102.71 42.1344 102.112 42.7609C101.5 43.3875 100.786 43.8829 99.9849 44.2181C99.198 44.5532 98.3529 44.7426 97.5077 44.7572Z" fill="#5A31F4"/>
<path d="M49.5678 29.9965C48.1106 26.9365 45.3421 24.9693 41.1746 24.9693C39.8924 24.9985 38.6392 25.3045 37.5027 25.8873C36.3661 26.4702 35.3752 27.3153 34.6175 28.3353L34.4718 28.5247V16.5325C34.4718 16.5325 34.4427 16.4013 34.3989 16.343C34.3552 16.2993 34.2824 16.2702 34.2095 16.2702H28.3227C28.3227 16.2702 28.1915 16.2993 28.1478 16.343C28.1041 16.3868 28.075 16.4596 28.075 16.5325V50.921C28.075 50.921 28.1041 51.0521 28.1478 51.0958C28.1915 51.1396 28.2644 51.1687 28.3227 51.1687H34.6321C34.6321 51.1687 34.7632 51.1396 34.8215 51.0958C34.8652 51.0521 34.8944 50.9793 34.8944 50.921V36.2622C34.8944 33.4062 36.7887 31.3953 39.8341 31.3953C43.1564 31.3953 44.0015 34.1347 44.0015 36.9179V50.921C44.0015 50.921 44.0306 51.0521 44.0744 51.0958C44.1181 51.1396 44.1909 51.1687 44.2492 51.1687H50.5441C50.5441 51.1687 50.6752 51.1396 50.7335 51.0958C50.7772 51.0521 50.8064 50.9793 50.8064 50.921V36.0727C50.8064 35.5627 50.8063 35.0673 50.7335 34.5864C50.6315 32.9982 50.2235 31.439 49.5678 29.9965Z" fill="#5A31F4"/>
<path d="M18.0792 35.0966C18.0792 35.0966 14.8735 34.3389 13.6932 34.0329C12.513 33.7269 10.4438 33.0858 10.4438 31.5266C10.4438 29.9675 12.105 29.4721 13.7952 29.4721C15.4855 29.4721 17.3652 29.88 17.511 31.7598C17.511 31.8326 17.5547 31.8909 17.5984 31.9346C17.6421 31.9783 17.715 32.0075 17.7878 32.0075L24.0098 31.9783C24.0098 31.9783 24.0827 31.9783 24.1118 31.9492C24.1409 31.9346 24.1701 31.92 24.1992 31.8909C24.2284 31.8618 24.2429 31.8326 24.2575 31.8035C24.2575 31.7743 24.2721 31.7306 24.2575 31.7015C23.8787 25.6981 18.6038 23.5561 13.7515 23.5561C7.99583 23.5269 3.78469 27.3301 3.78469 31.5266C3.78469 34.5866 4.6444 37.4572 11.4493 39.4535C12.6441 39.8032 14.2615 40.2549 15.675 40.6483C17.3798 41.1292 18.2978 41.8432 18.2978 42.9652C18.2978 44.2766 16.4035 45.1946 14.5384 45.1946C11.8427 45.1946 9.91925 44.1892 9.75897 42.3969C9.75897 42.324 9.71525 42.2657 9.67154 42.222C9.62783 42.1783 9.55497 42.1492 9.49668 42.1492L3.28926 42.1783C3.28926 42.1783 3.21641 42.1783 3.18726 42.1929C3.15812 42.1929 3.12898 42.222 3.09983 42.2512C3.07069 42.2803 3.05612 42.3095 3.04155 42.3386C3.04155 42.3677 3.02698 42.4115 3.02698 42.4406C3.31841 48.1089 8.78268 51.1543 13.8827 51.1543C21.4744 51.1543 24.9132 46.8849 24.9132 42.8777C24.9132 40.998 24.4907 36.714 18.1084 35.082L18.0792 35.0966Z" fill="#5A31F4"/>
<path d="M65.4656 23.4685C59.5788 23.4685 56.6499 25.4648 54.2894 27.0676L54.2165 27.1114C54.0999 27.1988 54.0125 27.3154 53.9834 27.4611C53.9542 27.6068 53.9834 27.7525 54.0416 27.8836L56.3731 31.8908C56.4168 31.9636 56.4751 32.0365 56.5479 32.0802C56.6208 32.1239 56.7082 32.1676 56.7811 32.1822C56.8685 32.1968 56.9559 32.1822 57.0288 32.1822C57.1162 32.1531 57.1891 32.1239 57.2473 32.0656L57.4368 31.9199C58.6462 30.8999 60.5842 29.5448 65.2908 29.1805C67.9136 28.9765 70.1722 29.6614 71.8333 31.2059C73.6693 32.8962 74.7622 35.6211 74.7622 38.5062C74.7622 43.8102 71.6439 47.147 66.6168 47.2053C62.4785 47.1762 59.6953 45.0196 59.6953 41.843C59.6953 40.1528 60.4531 39.0453 61.9539 37.9525C62.0705 37.8651 62.1433 37.7485 62.1871 37.6173C62.2162 37.4862 62.1871 37.3405 62.1288 37.2093L60.0451 33.2605C60.0451 33.2605 59.9576 33.1293 59.8848 33.0711C59.8265 33.0273 59.7536 32.9836 59.6662 32.9545C59.5933 32.9253 59.5059 32.9253 59.4185 32.9399C59.3311 32.9399 59.2582 32.9836 59.1853 33.0273C56.8394 34.4116 53.9542 36.9616 54.1145 41.8576C54.3039 48.0796 59.4768 52.8445 66.2088 53.0339H67.0102C75.0099 52.7716 80.7802 46.841 80.7802 38.7831C80.7802 31.3954 75.3888 23.4831 65.4365 23.4831L65.4656 23.4685Z" fill="#5A31F4"/>
<path fill-rule="evenodd" clip-rule="evenodd" d="M123.736 16.3578H177.592C181.308 16.3578 184.324 19.3741 184.324 23.0898V52.5678C184.324 56.2835 181.308 59.2998 177.592 59.2998H123.736C120.021 59.2998 117.004 56.2835 117.004 52.5678V23.0898C117.004 19.3741 120.021 16.3578 123.736 16.3578ZM135.816 39.7158C140.304 39.7158 143.524 36.4372 143.524 31.8473C143.524 27.2573 140.304 23.9787 135.816 23.9787H127.889C127.802 23.9787 127.7 24.0224 127.642 24.0807C127.569 24.1536 127.54 24.241 127.54 24.3284V46.0981C127.54 46.1855 127.583 46.2875 127.642 46.3458C127.714 46.4187 127.802 46.4478 127.889 46.4478H130.876C130.964 46.4478 131.066 46.4041 131.124 46.3458C131.197 46.2729 131.226 46.1855 131.226 46.0981V40.0655C131.226 39.9781 131.27 39.8761 131.328 39.8178C131.401 39.745 131.488 39.7158 131.576 39.7158H135.816ZM135.583 27.2864C138.031 27.2864 139.823 29.2098 139.823 31.8473C139.823 34.4847 138.016 36.4081 135.583 36.4081H131.576C131.488 36.4081 131.386 36.3644 131.328 36.3061C131.255 36.2332 131.226 36.1458 131.226 36.0584V27.6507C131.226 27.5633 131.27 27.4613 131.328 27.403C131.401 27.3301 131.488 27.301 131.576 27.301H135.583V27.2864ZM144.399 42.2804C144.369 41.581 144.515 40.8815 144.821 40.2404C145.127 39.5992 145.593 39.0601 146.162 38.6521C147.327 37.7778 149.12 37.3261 151.786 37.2241L154.613 37.1221V36.2915C154.613 34.6304 153.491 33.9164 151.699 33.9164C149.907 33.9164 148.77 34.5575 148.493 35.5921C148.479 35.665 148.42 35.7232 148.362 35.7815C148.304 35.8253 148.231 35.8544 148.143 35.8398H145.36C145.36 35.8398 145.258 35.8398 145.215 35.8107C145.171 35.7961 145.127 35.7524 145.098 35.7232C145.069 35.6795 145.04 35.6358 145.025 35.5921C145.025 35.5484 145.011 35.4901 145.025 35.4464C145.448 32.9838 147.488 31.1041 151.845 31.1041C156.464 31.1041 158.139 33.2607 158.139 37.3698V46.0981C158.139 46.0981 158.139 46.1855 158.11 46.2292C158.096 46.2729 158.067 46.3167 158.037 46.3458C158.008 46.375 157.965 46.4041 157.921 46.4187C157.877 46.4332 157.833 46.4478 157.79 46.4478H154.977C154.977 46.4478 154.89 46.4478 154.846 46.4187C154.803 46.4041 154.759 46.375 154.73 46.3458C154.701 46.3167 154.671 46.2729 154.657 46.2292C154.642 46.1855 154.628 46.1418 154.628 46.0981V45.4424C154.628 45.4424 154.628 45.3258 154.584 45.2821C154.555 45.2384 154.511 45.1947 154.453 45.1801C154.395 45.1655 154.336 45.151 154.293 45.1801C154.249 45.2092 154.191 45.2238 154.147 45.2675C153.302 46.1855 151.932 46.8558 149.761 46.8558C146.57 46.8558 144.442 45.1947 144.442 42.3095L144.399 42.2804ZM154.613 40.3861V39.7158L150.956 39.9052C149.032 40.0072 147.896 40.8087 147.896 42.1492C147.896 43.3732 148.93 44.0435 150.723 44.0435C153.171 44.0435 154.613 42.7175 154.613 40.3861ZM160.937 50.5132V53.0487C160.937 53.1361 160.952 53.2089 161.01 53.2818C161.054 53.3547 161.127 53.3984 161.199 53.4275C161.695 53.5587 162.205 53.6315 162.729 53.6169C165.454 53.6169 167.946 52.6261 169.374 48.7355L175.64 32.0075C175.64 32.0075 175.669 31.891 175.64 31.8473C175.64 31.789 175.611 31.7307 175.581 31.687C175.552 31.6433 175.509 31.5995 175.45 31.5704C175.392 31.5413 175.348 31.5267 175.29 31.5267H172.376C172.303 31.5267 172.23 31.5558 172.172 31.5995C172.113 31.6433 172.07 31.7015 172.041 31.7744L168.587 42.3678C168.587 42.3678 168.514 42.499 168.456 42.5427C168.398 42.5864 168.325 42.601 168.252 42.601C168.179 42.601 168.106 42.5718 168.048 42.5427C167.99 42.499 167.946 42.4407 167.917 42.3678L163.939 31.7453C163.939 31.7453 163.866 31.6141 163.808 31.5704C163.749 31.5267 163.677 31.5121 163.604 31.5121H160.748C160.748 31.5121 160.631 31.5267 160.587 31.5558C160.544 31.585 160.5 31.6141 160.456 31.6724C160.427 31.7161 160.398 31.7744 160.398 31.8327C160.398 31.891 160.398 31.9493 160.413 31.993L166.27 47.0452C166.299 47.1181 166.299 47.2055 166.27 47.2929L166.081 47.8758C165.862 48.6044 165.411 49.2309 164.799 49.6681C164.187 50.1052 163.429 50.3238 162.686 50.2801C162.249 50.2801 161.811 50.2364 161.374 50.1635C161.316 50.1635 161.272 50.1635 161.214 50.1635C161.156 50.1635 161.112 50.2072 161.068 50.2364C161.025 50.2655 160.995 50.3092 160.966 50.3675C160.937 50.4112 160.937 50.4695 160.937 50.5278V50.5132Z" fill="#5A31F4"/>
</svg>
