<svg width="186" height="75" viewBox="0 0 186 75" fill="none" xmlns="http://www.w3.org/2000/svg">
<path d="M126.951 22.0011L136.769 20.2425V57.9329H126.951V22.0011ZM141.285 22.0011V57.9329H151.108V20.2425L141.285 22.0011ZM112.965 57.9329H122.788V30.3675H112.965V57.9329ZM48.0578 34.2646C46.8143 34.1813 43.9423 33.9992 43.9423 31.4081C43.9423 28.2863 48.0787 28.2863 49.6343 28.2863C52.3659 28.2863 55.8987 29.0928 58.4222 29.8472C58.4222 29.8472 59.8322 30.3415 61.0289 30.8514L61.1381 30.8826V22.3341L60.9872 22.2873C58.0111 21.2467 54.546 20.2425 48.1255 20.2425C37.0483 20.2425 33.1253 26.6942 33.1253 32.2198C33.1253 35.404 34.4885 42.9015 47.1681 43.7652C48.2452 43.8328 51.0964 43.9941 51.0964 46.6685C51.0964 48.8745 48.7602 50.1805 44.832 50.1805C40.5291 50.1805 36.3512 49.0826 33.8121 48.042V56.8507C37.6103 57.8444 41.8871 58.3439 46.908 58.3439C57.7354 58.3439 62.5846 52.2408 62.5846 46.195C62.5846 39.3375 57.1579 34.8837 48.0578 34.2698V34.2646ZM107.434 29.9617C98.355 30.2531 93.7504 34.327 93.7504 42.4228V57.9329H103.657V45.2845C103.657 40.4353 104.292 38.3593 110.046 38.1616V30.1074C109.078 29.8993 107.439 29.9669 107.439 29.9669L107.434 29.9617ZM80.7898 30.3363C80.5712 30.8878 78.9999 35.326 75.1966 39.9306V20.2425L65.0612 22.2457V57.9329H75.1966V46.9026C78.131 51.3043 79.5827 57.9329 79.5827 57.9329H91.7212C90.5193 52.9432 85.2695 43.734 85.2695 43.734C89.9834 37.7558 92.0542 31.3873 92.382 30.3311H80.7898V30.3363ZM117.882 27.7244C120.556 27.7244 122.726 25.56 122.726 22.8857C122.726 20.2113 120.556 18.0417 117.882 18.0417C115.207 18.0417 113.043 20.2113 113.043 22.8857C113.043 25.56 115.213 27.7244 117.882 27.7244Z" fill="#862165"/>
</svg>
