<svg width="186" height="75" viewBox="0 0 186 75" fill="none" xmlns="http://www.w3.org/2000/svg">
<path d="M33.6284 41.9516C33.6284 42.6518 33.0572 43.2231 32.363 43.2231H23.4868C22.7866 43.2231 22.2215 42.6518 22.2215 41.9516V33.0754C22.2215 32.3751 22.7927 31.81 23.4868 31.81H32.363C33.0572 31.81 33.6284 32.3813 33.6284 33.0754V41.9516ZM41.2331 48.6102C41.2331 49.8265 40.238 50.8216 39.0156 50.8216H16.822C15.6058 50.8216 14.6045 49.8265 14.6045 48.6102V26.4229C14.6045 25.2066 15.5996 24.2053 16.822 24.2053H39.0156C40.238 24.2053 41.2331 25.2005 41.2331 26.4229V48.6164V48.6102ZM41.8658 16.5946H13.9718C10.1388 16.5946 6.99988 19.7335 6.99988 23.5665V51.4604C6.99988 55.2935 10.1388 58.4324 13.9718 58.4324H41.8658C45.6988 58.4324 48.8377 55.2935 48.8377 51.4604V23.5665C48.8377 19.7273 45.6988 16.5946 41.8658 16.5946Z" fill="black"/>
<path d="M68.2057 51.2512C65.7241 51.2512 63.3407 50.2929 61.6576 48.616C60.1588 47.1172 59.3295 45.1761 59.3295 43.1428H61.8419C61.8419 44.5065 62.407 45.8211 63.4328 46.8407C64.643 48.0447 66.3875 48.7388 68.2057 48.7388H68.2241C71.7316 48.7388 74.5818 46.2879 74.5818 43.2718C74.5818 41.0113 73.3287 39.2177 67.2475 37.8049C64.7719 37.2336 63.1011 36.4657 61.9893 35.3908C60.8038 34.2421 60.2264 32.7187 60.2264 30.7223C60.2264 26.791 63.7523 23.5845 68.089 23.5845C70.1652 23.5845 72.1247 24.2971 73.6051 25.5993C75.1347 26.9384 75.9762 28.7505 75.9762 30.6916H73.4638C73.4638 28.1547 71.0559 26.0969 68.089 26.0969C65.1221 26.0969 62.7387 28.2161 62.7387 30.7223C62.7387 33.0136 63.525 34.3588 67.8187 35.3539C72.4012 36.4105 77.088 38.1796 77.1003 43.2596C77.1003 45.4218 76.1605 47.4427 74.459 48.9477C72.7943 50.4219 70.5829 51.2328 68.2303 51.2328H68.2057V51.2512Z" fill="black"/>
<path d="M90.3314 33.4502C85.8227 33.4502 82.5609 36.8164 82.5609 41.2944C82.5609 45.7724 85.8903 48.9973 90.3314 48.9973C94.7726 48.9973 97.9299 45.4898 97.9299 41.2575C97.9299 37.0252 94.6374 33.4502 90.3314 33.4502ZM97.7948 58.4018V47.4002H97.7211C96.0933 49.8941 93.2861 51.178 90.3314 51.178C84.6433 51.178 80.1284 46.9088 80.1284 41.1838C80.1284 35.4588 84.7477 31.2572 90.3314 31.2572C93.2861 31.2572 96.0933 32.5411 97.7211 35.0718H97.7948V31.7425H100.227V58.3956H97.7948V58.4018Z" fill="black"/>
<path d="M135.075 33.45C130.566 33.45 127.304 36.8162 127.304 41.2942C127.304 45.7722 130.634 48.9971 135.075 48.9971C139.516 48.9971 142.673 45.4896 142.673 41.2573C142.673 37.025 139.381 33.45 135.075 33.45ZM142.538 50.7293V47.4H142.464C140.8 49.8939 138.023 51.1778 135.075 51.1778C129.387 51.1778 124.872 46.9086 124.872 41.1897C124.872 35.4709 129.485 31.2632 135.075 31.2632C138.06 31.2632 140.837 32.5163 142.464 35.0839H142.538V31.7546H144.965V50.7355H142.538V50.7293Z" fill="black"/>
<path d="M152.244 39.6234V50.7293H149.811V31.7484H152.244V34.4881H152.311C153.356 32.0617 155.192 31.4352 157.655 31.2632V33.8308C154.326 34.1072 152.244 36.2203 152.244 39.6234Z" fill="black"/>
<path d="M168.528 33.4444C164.744 33.4444 161.728 36.2209 161.132 39.931H175.948C175.322 36.2147 172.342 33.4444 168.522 33.4444M178.405 42.1178H161.126C161.298 45.8649 164.775 48.9854 168.485 48.9854C171.396 48.9854 174.247 47.3207 175.285 44.5073H177.846C176.464 48.4632 172.717 51.166 168.515 51.166C163.036 51.166 158.626 46.6941 158.626 41.2394C158.626 35.7847 163.03 31.2453 168.479 31.2453C173.927 31.2453 178.442 35.9322 178.442 41.4176C178.442 41.6571 178.399 41.866 178.399 42.1117" fill="black"/>
<path d="M119.073 50.754V47.7871H119.006C117.888 50.1274 115.412 51.2085 112.906 51.2085C110.4 51.2085 107.918 50.3363 106.352 48.3522C104.994 46.6445 104.681 44.341 104.681 42.2156V31.6871H107.12V42.1788C107.12 46.1162 108.551 49.0156 112.906 49.0156C114.509 49.0156 115.762 48.5917 116.948 47.4799C118.625 45.8767 118.932 43.9909 118.932 41.7672V31.6932H121.377V50.7663H119.073V50.754Z" fill="black"/>
</svg>
