<svg width="186" height="75" viewBox="0 0 186 75" fill="none" xmlns="http://www.w3.org/2000/svg">
<path d="M142.034 2.45318L114.889 2.44617H114.882C114.861 2.44617 114.84 2.44968 114.82 2.44968C111.091 2.56307 106.446 5.53281 105.6 9.19475L92.7638 65.594C91.9176 69.2901 94.2184 72.2975 97.9206 72.3526H126.437C130.082 72.1736 133.625 69.238 134.456 65.6176L147.294 9.21795C148.153 5.48465 145.797 2.45274 142.033 2.45274" fill="#01798A"/>
<path d="M92.7636 65.594L105.601 9.19473C106.446 5.53279 111.091 2.56305 114.82 2.44965L104.027 2.44309L84.5819 2.43958C80.8423 2.51533 76.1375 5.50608 75.2922 9.1956L62.4516 65.5944C61.6023 69.2905 63.9071 72.2979 67.6066 72.3531H97.9208C94.2187 72.2979 91.9178 69.2905 92.764 65.5944" fill="#024381"/>
<path d="M62.4517 65.5938L75.2923 9.19459C76.1381 5.50551 80.8429 2.51475 84.5821 2.43857L59.672 2.43244C55.9117 2.43244 51.0905 5.45735 50.2311 9.19459L37.3904 65.5938C37.3124 65.938 37.2687 66.2755 37.2432 66.6052V67.6512C37.4945 70.3455 39.5669 72.3074 42.5455 72.3525H67.6068C63.9073 72.2978 61.6025 69.2904 62.4517 65.5938Z" fill="#DD0228"/>
<path d="M85.1074 43.535H85.5787C86.0117 43.535 86.3032 43.3901 86.4399 43.1047L87.6648 41.2846H90.945L90.2611 42.4816H94.1943L93.6951 44.3161H89.015C88.4757 45.1213 87.8121 45.4995 87.0149 45.4549H84.5769L85.1069 43.535M84.5681 46.1637H93.1858L92.6364 48.1567H89.1706L88.6419 50.08H92.0143L91.4653 52.073H88.093L87.3094 54.9153C87.1154 55.3904 87.3707 55.604 88.0705 55.5559H90.8189L90.3096 57.4078H85.0328C84.0328 57.4078 83.6893 56.8396 84.0032 55.7008L85.0051 52.0739H82.8498L83.3974 50.0809H85.5532L86.0818 48.1576H84.0213L84.569 46.1646L84.5681 46.1637ZM98.3223 41.2702L98.187 42.437C98.187 42.437 99.8123 41.2255 101.289 41.2255H106.743L104.657 48.7241C104.484 49.5814 103.742 50.0074 102.432 50.0074H96.2486L94.8006 55.2726C94.7168 55.555 94.8349 55.6995 95.1467 55.6995H96.3637L95.9166 57.3339H92.8238C91.6368 57.3339 91.143 56.9792 91.3387 56.2669L95.4315 41.2698H98.3228L98.3223 41.2702ZM102.942 43.3901H98.0728L97.4903 45.4137C97.4903 45.4137 98.3012 44.8327 99.6566 44.8117C101.008 44.7907 102.551 44.8117 102.551 44.8117L102.942 43.3901ZM101.177 48.084C101.537 48.1326 101.739 47.9912 101.763 47.6571L102.061 46.5906H97.1847L96.776 48.0836H101.177V48.084ZM97.8885 50.5069H100.699L100.647 51.7149H101.395C101.774 51.7149 101.961 51.5945 101.961 51.3572L102.183 50.5761H104.519L104.208 51.7153C103.943 52.6649 103.244 53.1605 102.107 53.2091H100.609L100.602 55.2735C100.575 55.6045 100.876 55.7726 101.496 55.7726H102.903L102.449 57.4074H99.0733C98.127 57.4521 97.6627 57.0046 97.6728 56.0545L97.8885 50.5069ZM63.8267 31.2804C63.4453 33.1355 62.5616 34.5601 61.1908 35.5715C59.8322 36.5662 58.0804 37.0649 55.9347 37.0649C53.9157 37.0649 52.4359 36.5557 51.4914 35.5339C50.8362 34.8079 50.5107 33.8855 50.5107 32.7708C50.5107 32.3097 50.5663 31.8141 50.677 31.2809L52.9628 20.338H56.4145L54.1604 31.1565C54.096 31.4284 54.0647 31.7069 54.0669 31.9858C54.0634 32.54 54.2019 32.9941 54.4823 33.3487C54.891 33.8754 55.5547 34.1363 56.4789 34.1363C57.5411 34.1363 58.4159 33.8785 59.0954 33.3583C59.7749 32.8421 60.2185 32.1092 60.4173 31.1561L62.6789 20.3371H66.1134L63.8258 31.2809M78.3231 26.9758H81.0265L78.9086 36.7422H76.2105L78.3231 26.9758ZM79.1741 23.4176H81.9017L81.392 25.7884H78.6648L79.1741 23.4176ZM83.4199 35.9988C82.7126 35.3276 82.3555 34.4227 82.3524 33.2734C82.3524 33.0772 82.3643 32.8535 82.3907 32.6092C82.4167 32.3614 82.4498 32.1206 82.4961 31.8969C82.8167 30.3102 83.4997 29.051 84.5513 28.1215C85.6017 27.189 86.8685 26.721 88.3518 26.721C89.5666 26.721 90.53 27.0585 91.2355 27.7323C91.9406 28.4105 92.2938 29.3256 92.2938 30.4888C92.2938 30.6881 92.2784 30.9188 92.2524 31.1666C92.2219 31.4109 92.1845 31.6543 92.1399 31.8964C91.8264 33.459 91.1456 34.7046 90.094 35.6166C89.0419 36.5352 87.7786 36.9927 86.3058 36.9927C85.0862 36.9927 84.1258 36.6626 83.4203 35.9984M88.5723 34.0645C89.0489 33.5518 89.3898 32.7738 89.5983 31.7384C89.6296 31.5764 89.6574 31.4078 89.6746 31.2393C89.6918 31.0742 89.6989 30.9192 89.6989 30.7782C89.6989 30.1758 89.5445 29.7082 89.2346 29.3777C88.9263 29.044 88.488 28.8785 87.9214 28.8785C87.1727 28.8785 86.5625 29.1395 86.0845 29.6631C85.6025 30.1863 85.2608 30.9779 85.0461 32.0308C85.0165 32.1928 84.9923 32.3544 84.9698 32.5129C84.9526 32.6749 84.9473 32.8259 84.9508 32.9638C84.9508 33.5628 85.1052 34.0238 85.4151 34.3509C85.7238 34.6779 86.1599 34.8395 86.734 34.8395C87.4862 34.8395 88.0961 34.5807 88.5727 34.065" fill="white"/>
<path d="M109.835 43.6176L110.487 41.3396H113.783L113.641 42.1759C113.641 42.1759 115.325 41.3396 116.538 41.3396H120.614L119.966 43.6176H119.325L116.251 54.3618H116.892L116.282 56.4953H115.641L115.374 57.4208H112.182L112.448 56.4953H106.151L106.765 54.3618H107.396L110.474 43.6176H109.836M113.392 43.6176L112.553 46.5252C112.553 46.5252 113.989 45.9779 115.226 45.8234C115.499 44.8085 115.856 43.6176 115.856 43.6176H113.392ZM112.165 47.8886L111.323 50.9345C111.323 50.9345 112.914 50.1565 114.005 50.0913C114.321 48.914 114.636 47.889 114.636 47.889H112.165L112.165 47.8886ZM112.781 54.3618L113.412 52.1521H110.952L110.317 54.3618H112.781ZM120.753 41.1987H123.852L123.983 42.3339C123.963 42.6229 124.136 42.7608 124.503 42.7608H125.051L124.497 44.6842H122.22C121.351 44.7288 120.903 44.3987 120.862 43.6864L120.753 41.1987H120.753ZM119.845 45.3251H129.881L129.292 47.3903H126.097L125.549 49.3102H128.742L128.149 51.3714H124.593L123.789 52.5798H125.53L125.932 54.9988C125.979 55.2396 126.194 55.3565 126.562 55.3565H127.102L126.534 57.3486H124.621C123.629 57.3972 123.117 57.0666 123.075 56.3543L122.614 54.1446L121.03 56.4953C120.656 57.1594 120.08 57.469 119.304 57.4208H116.383L116.95 55.4279H117.862C118.237 55.4279 118.548 55.2632 118.829 54.9287L121.308 51.3706H118.112L118.705 49.3093H122.17L122.722 47.3895H119.253L119.845 45.3243M67.0069 26.9717H69.4453L69.1662 28.3823L69.5163 27.9795C70.3069 27.1398 71.2669 26.7234 72.4001 26.7234C73.4261 26.7234 74.1656 27.0194 74.6304 27.6148C75.0876 28.2103 75.2128 29.0329 74.9959 30.089L73.6523 36.7443H71.1465L72.3591 30.712C72.4839 30.089 72.4495 29.6244 72.2568 29.325C72.0667 29.0255 71.7025 28.8779 71.1773 28.8779C70.5327 28.8779 69.9903 29.0771 69.5481 29.4734C69.1045 29.8727 68.8117 30.427 68.6675 31.1318L67.5497 36.7447H65.0386L67.006 26.9717M94.9661 26.9717H97.4067L97.1293 28.3823L97.475 27.9795C98.2661 27.1398 99.2295 26.7234 100.359 26.7234C101.385 26.7234 102.126 27.0194 102.587 27.6148C103.042 28.2103 103.173 29.0329 102.952 30.089L101.613 36.7443H99.1043L100.318 30.712C100.443 30.089 100.407 29.6244 100.217 29.325C100.019 29.0255 99.6621 28.8779 99.1391 28.8779C98.494 28.8779 97.9539 29.0771 97.5068 29.4734C97.0632 29.8727 96.7686 30.427 96.6302 31.1318L95.5071 36.7447H92.9995L94.9661 26.9717ZM107.028 20.9148H114.112C115.473 20.9148 116.527 21.2213 117.251 21.8229C117.972 22.4328 118.333 23.3062 118.333 24.4454V24.48C118.333 24.6967 118.319 24.9411 118.298 25.2059C118.261 25.4748 118.216 25.7423 118.159 26.008C117.847 27.515 117.123 28.7269 116.004 29.6454C114.88 30.5609 113.55 31.0219 112.018 31.0219H108.219L107.044 36.7447H103.755L107.028 20.9148ZM108.798 28.2694H111.948C112.769 28.2694 113.421 28.0798 113.897 27.705C114.368 27.3263 114.681 26.7484 114.853 25.9638C114.881 25.8189 114.898 25.6884 114.919 25.568C114.93 25.4546 114.943 25.3408 114.943 25.2309C114.943 24.6696 114.743 24.2637 114.34 24.0089C113.938 23.7502 113.307 23.6271 112.434 23.6271H109.759L108.798 28.2698M133.055 38.6348C132.015 40.83 131.024 42.1098 130.442 42.7052C129.86 43.2941 128.706 44.6636 125.926 44.5603L126.166 42.8847C128.505 42.1689 129.77 38.9439 130.491 37.5162L129.631 26.9997L131.44 26.9756H132.958L133.122 33.5727L135.966 26.9756H138.847L133.055 38.6348ZM125.001 27.7703L123.857 28.5513C122.662 27.6223 121.57 27.0474 119.463 28.0181C116.593 29.3394 114.195 39.4745 122.097 36.1361L122.547 36.6663L125.656 36.7456L127.698 27.5365L125.001 27.7703ZM123.233 32.8048C122.734 34.2675 121.618 35.2342 120.745 34.9588C119.871 34.6905 119.559 33.2794 120.066 31.8135C120.565 30.3473 121.688 29.3841 122.554 29.6594C123.427 29.9278 123.742 31.3389 123.233 32.8048Z" fill="white"/>
</svg>
