<svg width="187" height="75" viewBox="0 0 187 75" fill="none" xmlns="http://www.w3.org/2000/svg">
<path fill-rule="evenodd" clip-rule="evenodd" d="M35.2107 57.805H25.5575L18.3188 29.3767C17.9752 28.069 17.2457 26.9129 16.1726 26.368C13.4946 24.9987 10.5436 23.909 7.32428 23.3594V22.2649H22.8748C25.021 22.2649 26.6306 23.909 26.8989 25.8184L30.6547 46.3247L40.3032 22.2649H49.6881L35.2107 57.805ZM55.0534 57.805H45.9368L53.4438 22.2649H62.5604L55.0534 57.805ZM74.355 32.1105C74.6233 30.1964 76.2329 29.1019 78.1109 29.1019C81.0619 28.8271 84.2765 29.3767 86.9592 30.7412L88.5689 23.0893C85.8861 21.9948 82.9351 21.4452 80.2571 21.4452C71.4087 21.4452 64.9701 26.368 64.9701 33.2003C64.9701 38.3979 69.5308 41.127 72.7501 42.7711C76.233 44.4105 77.5743 45.505 77.3061 47.1444C77.3061 49.6034 74.6233 50.6979 71.9453 50.6979C68.726 50.6979 65.5067 49.8782 62.5604 48.5089L60.9507 56.1656C64.17 57.5302 67.6529 58.0798 70.8722 58.0798C80.7936 58.3499 86.9592 53.4318 86.9592 46.0499C86.9592 36.7538 74.355 36.2089 74.355 32.1105ZM118.866 57.805L111.627 22.2649H103.852C102.242 22.2649 100.632 23.3594 100.096 24.9987L86.6915 57.805H96.0764L97.9496 52.6121H109.481L110.554 57.805H118.866ZM105.193 31.836L107.871 45.2304H100.364L105.193 31.836Z" fill="#172B85"/>
<path fill-rule="evenodd" clip-rule="evenodd" d="M146.561 53.6045C143.07 56.5476 138.541 58.3242 133.592 58.3242C122.549 58.3242 113.597 49.4788 113.597 38.5675C113.597 27.6562 122.549 18.8108 133.592 18.8108C138.541 18.8108 143.07 20.5875 146.561 23.5305C150.053 20.5875 154.582 18.8108 159.531 18.8108C170.574 18.8108 179.525 27.6562 179.525 38.5675C179.525 49.4788 170.574 58.3242 159.531 58.3242C154.582 58.3242 150.053 56.5476 146.561 53.6045Z" fill="#ED0006"/>
<path fill-rule="evenodd" clip-rule="evenodd" d="M146.561 53.6046C150.86 49.9809 153.586 44.5888 153.586 38.5675C153.586 32.5463 150.86 27.1542 146.561 23.5304C150.053 20.5874 154.582 18.8108 159.531 18.8108C170.573 18.8108 179.525 27.6562 179.525 38.5675C179.525 49.4788 170.573 58.3242 159.531 58.3242C154.582 58.3242 150.053 56.5476 146.561 53.6046Z" fill="#F9A000"/>
<path fill-rule="evenodd" clip-rule="evenodd" d="M146.561 53.6045C150.86 49.9807 153.586 44.5887 153.586 38.5675C153.586 32.5463 150.86 27.1542 146.561 23.5305C142.262 27.1542 139.536 32.5463 139.536 38.5675C139.536 44.5887 142.262 49.9807 146.561 53.6045Z" fill="#FF5E00"/>
</svg>
