<svg width="186" height="75" viewBox="0 0 186 75" fill="none" xmlns="http://www.w3.org/2000/svg">
<path fill-rule="evenodd" clip-rule="evenodd" d="M55.388 60.4502H42.5106L32.8541 22.5266C32.3958 20.7821 31.4226 19.2399 29.9911 18.513C26.4185 16.6864 22.4819 15.2327 18.1873 14.4995V13.0394H38.9318C41.7948 13.0394 43.9421 15.2327 44.3 17.7799L49.3103 45.1354L62.1815 13.0394H74.701L55.388 60.4502ZM81.8585 60.4502H69.6968L79.7112 13.0394H91.8728L81.8585 60.4502ZM107.607 26.1736C107.965 23.6201 110.112 22.16 112.617 22.16C116.554 21.7934 120.842 22.5266 124.421 24.3469L126.568 14.1392C122.99 12.6791 119.053 11.9459 115.48 11.9459C103.677 11.9459 95.0876 18.513 95.0876 27.6273C95.0876 34.561 101.172 38.2017 105.466 40.3949C110.112 42.5818 111.902 44.0419 111.544 46.2288C111.544 49.5092 107.965 50.9693 104.392 50.9693C100.098 50.9693 95.8033 49.8758 91.8729 48.0492L89.7257 58.2632C94.0202 60.0836 98.6664 60.8168 102.961 60.8168C116.196 61.177 124.421 54.6163 124.421 44.7688C124.421 32.3678 107.607 31.6409 107.607 26.1736ZM166.984 60.4502L157.327 13.0394H146.955C144.808 13.0394 142.66 14.4995 141.945 16.6864L124.063 60.4502H136.583L139.082 53.5228H154.464L155.896 60.4502H166.984ZM148.744 25.8072L152.317 43.6755H142.303L148.744 25.8072Z" fill="#172B85"/>
</svg>
